<?xml version="1.0" encoding="utf-8" standalone="no"?>
<!DOCTYPE svg PUBLIC "-//W3C//DTD SVG 1.1//EN"
  "http://www.w3.org/Graphics/SVG/1.1/DTD/svg11.dtd">
<!-- Created with matplotlib (https://matplotlib.org/) -->
<svg height="291.6pt" version="1.1" viewBox="0 0 921.15 291.6" width="921.15pt" xmlns="http://www.w3.org/2000/svg" xmlns:xlink="http://www.w3.org/1999/xlink">
 <metadata>
  <rdf:RDF xmlns:cc="http://creativecommons.org/ns#" xmlns:dc="http://purl.org/dc/elements/1.1/" xmlns:rdf="http://www.w3.org/1999/02/22-rdf-syntax-ns#">
   <cc:Work>
    <dc:type rdf:resource="http://purl.org/dc/dcmitype/StillImage"/>
    <dc:date>2022-04-30T21:30:09.548640</dc:date>
    <dc:format>image/svg+xml</dc:format>
    <dc:creator>
     <cc:Agent>
      <dc:title>Matplotlib v3.3.4, https://matplotlib.org/</dc:title>
     </cc:Agent>
    </dc:creator>
   </cc:Work>
  </rdf:RDF>
 </metadata>
 <defs>
  <style type="text/css">*{stroke-linecap:butt;stroke-linejoin:round;}</style>
 </defs>
 <g id="figure_1">
  <g id="patch_1">
   <path d="M 0 291.6 
L 921.15 291.6 
L 921.15 0 
L 0 0 
z
" style="fill:#ffffff;"/>
  </g>
  <g id="axes_1">
   <g id="PolyCollection_1">
    <path clip-path="url(#pfa0ff2e453)" d="M -613.575 284.4 
L -599.715 284.4 
L -585.855 284.4 
L -571.995 284.4 
L -558.135 284.4 
L -544.275 284.4 
L -530.415 284.4 
L -516.555 284.4 
L -502.695 284.4 
L -488.835 284.4 
L -474.975 284.4 
L -461.115 284.4 
L -447.255 284.4 
L -433.395 284.4 
L -419.535 284.4 
L -405.675 284.4 
L -391.815 284.4 
L -377.955 284.4 
L -364.095 284.4 
L -350.235 284.4 
L -336.375 284.4 
L -322.515 284.4 
L -308.655 284.4 
L -294.795 284.4 
L -280.935 284.4 
L -267.075 284.4 
L -253.215 284.4 
L -239.355 284.4 
L -225.495 284.4 
L -211.635 284.4 
L -197.775 284.4 
L -183.915 284.4 
L -170.055 284.4 
L -156.195 284.4 
L -142.335 284.4 
L -128.475 284.4 
L -114.615 284.4 
L -100.755 284.4 
L -86.895 284.4 
L -73.035 284.4 
L -59.175 284.4 
L -45.315 284.4 
L -31.455 284.4 
L -17.595 284.4 
L -3.735 284.4 
L 10.125 284.4 
L 23.985 284.4 
L 37.845 284.4 
L 51.705 284.4 
L 65.565 284.4 
L 79.425 284.4 
L 93.285 284.4 
L 107.145 284.4 
L 121.005 284.4 
L 134.865 284.4 
L 148.725 284.4 
L 162.585 284.4 
L 176.445 284.4 
L 190.305 284.4 
L 204.165 284.4 
L 218.025 284.4 
L 231.885 284.4 
L 245.745 284.4 
L 259.605 284.4 
L 273.465 284.4 
L 287.325 284.4 
L 301.185 284.4 
L 315.045 284.4 
L 328.905 284.4 
L 342.765 284.4 
L 356.625 284.4 
L 370.485 284.4 
L 384.345 284.4 
L 398.205 284.4 
L 412.065 284.4 
L 425.925 284.4 
L 439.785 284.4 
L 453.645 284.4 
L 467.505 284.4 
L 481.365 284.4 
L 495.225 284.4 
L 509.085 284.4 
L 522.945 284.4 
L 536.805 284.4 
L 550.665 284.4 
L 564.525 284.4 
L 578.385 284.4 
L 592.245 284.4 
L 606.105 284.4 
L 619.965 284.4 
L 633.825 284.4 
L 647.685 284.4 
L 661.545 284.4 
L 675.405 284.4 
L 689.265 284.4 
L 703.125 284.4 
L 716.985 284.4 
L 730.845 284.4 
L 744.705 284.4 
L 758.565 284.4 
L 772.425 284.4 
L 786.285 284.4 
L 800.145 284.4 
L 814.005 284.4 
L 827.865 284.4 
L 841.725 284.4 
L 855.585 284.4 
L 869.445 284.4 
L 883.305 284.4 
L 897.165 284.4 
L 911.025 284.4 
L 924.885 284.4 
L 938.745 284.4 
L 952.605 284.4 
L 966.465 284.4 
L 980.325 284.4 
L 994.185 284.4 
L 1008.045 284.4 
L 1021.905 284.4 
L 1035.765 284.4 
L 1049.625 284.4 
L 1063.485 284.4 
L 1077.345 284.4 
L 1091.205 284.4 
L 1105.065 284.4 
L 1118.925 284.4 
L 1132.785 284.4 
L 1146.645 284.4 
L 1160.505 284.4 
L 1174.365 284.4 
L 1188.225 284.4 
L 1202.085 284.4 
L 1215.945 284.4 
L 1229.805 284.4 
L 1243.665 284.4 
L 1257.525 284.4 
L 1271.385 284.4 
L 1285.245 284.4 
L 1299.105 284.4 
L 1312.965 284.4 
L 1326.825 284.4 
L 1340.685 284.4 
L 1354.545 284.4 
L 1368.405 284.4 
L 1382.265 284.4 
L 1396.125 284.4 
L 1409.985 284.4 
L 1423.845 284.4 
L 1437.705 284.4 
L 1451.565 284.4 
L 1465.425 284.4 
L 1479.285 284.4 
L 1493.145 284.4 
L 1507.005 284.4 
L 1520.865 284.4 
L 1534.725 284.4 
L 1548.585 284.4 
L 1562.445 284.4 
L 1576.305 284.4 
L 1590.165 284.4 
L 1604.025 284.4 
L 1617.885 284.4 
L 1631.745 284.4 
L 1645.605 284.4 
L 1659.465 284.4 
L 1673.325 284.4 
L 1687.185 284.4 
L 1701.045 284.4 
L 1714.905 284.4 
L 1728.765 284.4 
L 1742.625 284.4 
L 1756.485 284.4 
L 1770.345 284.4 
L 1784.205 284.4 
L 1798.065 284.4 
L 1811.925 284.4 
L 1825.785 284.4 
L 1839.645 284.4 
L 1853.505 284.4 
L 1867.365 284.4 
L 1881.225 284.4 
L 1895.085 284.4 
L 1908.945 284.4 
L 1922.805 284.4 
L 1936.665 284.4 
L 1950.525 284.4 
L 1964.385 284.4 
L 1978.245 284.4 
L 1992.105 284.4 
L 2005.965 284.4 
L 2019.825 284.4 
L 2033.685 284.4 
L 2047.545 284.4 
L 2061.405 284.4 
L 2075.265 284.4 
L 2089.125 284.4 
L 2102.985 284.4 
L 2116.845 284.4 
L 2130.705 284.4 
L 2144.565 284.4 
L 2158.425 284.4 
L 2172.285 284.4 
L 2186.145 284.4 
L 2200.005 284.4 
L 2213.865 284.4 
L 2227.725 284.4 
L 2241.585 284.4 
L 2255.445 284.4 
L 2269.305 284.4 
L 2283.165 284.4 
L 2283.165 145.8 
L 2269.305 145.8 
L 2255.445 145.8 
L 2241.585 145.8 
L 2227.725 145.8 
L 2213.865 145.8 
L 2200.005 145.8 
L 2186.145 145.8 
L 2172.285 145.8 
L 2158.425 145.8 
L 2144.565 145.8 
L 2130.705 145.8 
L 2116.845 145.8 
L 2102.985 145.8 
L 2089.125 145.8 
L 2075.265 145.8 
L 2061.405 145.8 
L 2047.545 145.8 
L 2033.685 145.8 
L 2019.825 145.8 
L 2005.965 145.8 
L 1992.105 145.8 
L 1978.245 145.8 
L 1964.385 145.8 
L 1950.525 145.8 
L 1936.665 145.8 
L 1922.805 145.8 
L 1908.945 145.8 
L 1895.085 145.8 
L 1881.225 145.8 
L 1867.365 145.8 
L 1853.505 145.8 
L 1839.645 145.8 
L 1825.785 145.8 
L 1811.925 145.8 
L 1798.065 145.8 
L 1784.205 145.8 
L 1770.345 145.8 
L 1756.485 145.8 
L 1742.625 145.8 
L 1728.765 145.8 
L 1714.905 145.8 
L 1701.045 145.8 
L 1687.185 145.8 
L 1673.325 145.8 
L 1659.465 145.8 
L 1645.605 145.8 
L 1631.745 145.8 
L 1617.885 145.8 
L 1604.025 145.8 
L 1590.165 145.8 
L 1576.305 145.8 
L 1562.445 145.8 
L 1548.585 145.8 
L 1534.725 145.8 
L 1520.865 145.8 
L 1507.005 145.8 
L 1493.145 145.8 
L 1479.285 145.8 
L 1465.425 145.8 
L 1451.565 145.8 
L 1437.705 145.8 
L 1423.845 145.8 
L 1409.985 145.8 
L 1396.125 145.8 
L 1382.265 145.8 
L 1368.405 145.8 
L 1354.545 145.8 
L 1340.685 145.8 
L 1326.825 145.8 
L 1312.965 145.8 
L 1299.105 145.8 
L 1285.245 145.8 
L 1271.385 145.8 
L 1257.525 145.8 
L 1243.665 145.8 
L 1229.805 145.8 
L 1215.945 145.8 
L 1202.085 145.8 
L 1188.225 145.8 
L 1174.365 145.8 
L 1160.505 145.8 
L 1146.645 145.8 
L 1132.785 145.8 
L 1118.925 145.8 
L 1105.065 145.8 
L 1091.205 145.8 
L 1077.345 145.8 
L 1063.485 145.8 
L 1049.625 145.8 
L 1035.765 145.8 
L 1021.905 145.8 
L 1008.045 145.8 
L 994.185 145.8 
L 980.325 145.8 
L 966.465 145.8 
L 952.605 145.8 
L 938.745 145.8 
L 924.885 145.8 
L 911.025 145.8 
L 897.165 145.8 
L 883.305 145.8 
L 869.445 145.8 
L 855.585 145.8 
L 841.725 145.8 
L 827.865 145.8 
L 814.005 145.8 
L 800.145 145.8 
L 786.285 145.8 
L 772.425 145.8 
L 758.565 145.8 
L 744.705 145.8 
L 730.845 145.8 
L 716.985 145.8 
L 703.125 145.8 
L 689.265 145.8 
L 675.405 145.8 
L 661.545 145.8 
L 647.685 145.8 
L 633.825 145.8 
L 619.965 145.8 
L 606.105 145.8 
L 592.245 145.8 
L 578.385 145.8 
L 564.525 145.8 
L 550.665 145.8 
L 536.805 145.8 
L 522.945 145.8 
L 509.085 145.8 
L 495.225 145.8 
L 481.365 145.8 
L 467.505 145.8 
L 453.645 145.8 
L 439.785 145.8 
L 425.925 145.8 
L 412.065 145.8 
L 398.205 145.8 
L 384.345 145.8 
L 370.485 145.8 
L 356.625 145.8 
L 342.765 145.8 
L 328.905 145.8 
L 315.045 145.8 
L 301.185 145.8 
L 287.325 145.8 
L 273.465 145.8 
L 259.605 145.8 
L 245.745 145.8 
L 231.885 145.8 
L 218.025 145.8 
L 204.165 145.8 
L 190.305 145.8 
L 176.445 145.8 
L 162.585 145.8 
L 148.725 145.8 
L 134.865 145.8 
L 121.005 145.8 
L 107.145 145.8 
L 93.285 145.8 
L 79.425 145.8 
L 65.565 145.8 
L 51.705 145.8 
L 37.845 145.8 
L 23.985 145.8 
L 10.125 145.8 
L -3.735 145.8 
L -17.595 145.8 
L -31.455 145.8 
L -45.315 145.8 
L -59.175 145.8 
L -73.035 145.8 
L -86.895 145.8 
L -100.755 145.8 
L -114.615 145.8 
L -128.475 145.8 
L -142.335 145.8 
L -156.195 145.8 
L -170.055 145.8 
L -183.915 145.8 
L -197.775 145.8 
L -211.635 145.8 
L -225.495 145.8 
L -239.355 145.8 
L -253.215 145.8 
L -267.075 145.8 
L -280.935 145.8 
L -294.795 145.8 
L -308.655 145.8 
L -322.515 145.8 
L -336.375 145.8 
L -350.235 145.8 
L -364.095 145.8 
L -377.955 145.8 
L -391.815 145.8 
L -405.675 145.8 
L -419.535 145.8 
L -433.395 145.8 
L -447.255 145.8 
L -461.115 145.8 
L -474.975 145.8 
L -488.835 145.8 
L -502.695 145.8 
L -516.555 145.8 
L -530.415 145.8 
L -544.275 145.8 
L -558.135 145.8 
L -571.995 145.8 
L -585.855 145.8 
L -599.715 145.8 
L -613.575 145.8 
z
" style="fill:#c7c7c7;"/>
    <path clip-path="url(#pfa0ff2e453)" d="M -613.575 145.8 
L -599.715 145.8 
L -585.855 145.8 
L -571.995 145.8 
L -558.135 145.8 
L -544.275 145.8 
L -530.415 145.8 
L -516.555 145.8 
L -502.695 145.8 
L -488.835 145.8 
L -474.975 145.8 
L -461.115 145.8 
L -447.255 145.8 
L -433.395 145.8 
L -419.535 145.8 
L -405.675 145.8 
L -391.815 145.8 
L -377.955 145.8 
L -364.095 145.8 
L -350.235 145.8 
L -336.375 145.8 
L -322.515 145.8 
L -308.655 145.8 
L -294.795 145.8 
L -280.935 145.8 
L -267.075 145.8 
L -253.215 145.8 
L -239.355 145.8 
L -225.495 145.8 
L -211.635 145.8 
L -197.775 145.8 
L -183.915 145.8 
L -170.055 145.8 
L -156.195 145.8 
L -142.335 145.8 
L -128.475 145.8 
L -114.615 145.8 
L -100.755 145.8 
L -86.895 145.8 
L -73.035 145.8 
L -59.175 145.8 
L -45.315 145.8 
L -31.455 145.8 
L -17.595 145.8 
L -3.735 145.8 
L 10.125 145.8 
L 23.985 145.8 
L 37.845 145.8 
L 51.705 145.8 
L 65.565 145.8 
L 79.425 145.8 
L 93.285 145.8 
L 107.145 145.8 
L 121.005 145.8 
L 134.865 145.8 
L 148.725 145.8 
L 162.585 145.8 
L 176.445 145.8 
L 190.305 145.8 
L 204.165 145.8 
L 218.025 145.8 
L 231.885 145.8 
L 245.745 145.8 
L 259.605 145.8 
L 273.465 145.8 
L 287.325 145.8 
L 301.185 145.8 
L 315.045 145.8 
L 328.905 145.8 
L 342.765 145.8 
L 356.625 145.8 
L 370.485 145.8 
L 384.345 145.8 
L 398.205 145.8 
L 412.065 145.8 
L 425.925 145.8 
L 439.785 145.8 
L 453.645 145.8 
L 467.505 145.8 
L 481.365 145.8 
L 495.225 145.8 
L 509.085 145.8 
L 522.945 145.8 
L 536.805 145.8 
L 550.665 145.8 
L 564.525 145.8 
L 578.385 145.8 
L 592.245 145.8 
L 606.105 145.8 
L 619.965 145.8 
L 633.825 145.8 
L 647.685 145.8 
L 661.545 145.8 
L 675.405 145.8 
L 689.265 145.8 
L 703.125 145.8 
L 716.985 145.8 
L 730.845 145.8 
L 744.705 145.8 
L 758.565 145.8 
L 772.425 145.8 
L 786.285 145.8 
L 800.145 145.8 
L 814.005 145.8 
L 827.865 145.8 
L 841.725 145.8 
L 855.585 145.8 
L 869.445 145.8 
L 883.305 145.8 
L 897.165 145.8 
L 911.025 145.8 
L 924.885 145.8 
L 938.745 145.8 
L 952.605 145.8 
L 966.465 145.8 
L 980.325 145.8 
L 994.185 145.8 
L 1008.045 145.8 
L 1021.905 145.8 
L 1035.765 145.8 
L 1049.625 145.8 
L 1063.485 145.8 
L 1077.345 145.8 
L 1091.205 145.8 
L 1105.065 145.8 
L 1118.925 145.8 
L 1132.785 145.8 
L 1146.645 145.8 
L 1160.505 145.8 
L 1174.365 145.8 
L 1188.225 145.8 
L 1202.085 145.8 
L 1215.945 145.8 
L 1229.805 145.8 
L 1243.665 145.8 
L 1257.525 145.8 
L 1271.385 145.8 
L 1285.245 145.8 
L 1299.105 145.8 
L 1312.965 145.8 
L 1326.825 145.8 
L 1340.685 145.8 
L 1354.545 145.8 
L 1368.405 145.8 
L 1382.265 145.8 
L 1396.125 145.8 
L 1409.985 145.8 
L 1423.845 145.8 
L 1437.705 145.8 
L 1451.565 145.8 
L 1465.425 145.8 
L 1479.285 145.8 
L 1493.145 145.8 
L 1507.005 145.8 
L 1520.865 145.8 
L 1534.725 145.8 
L 1548.585 145.8 
L 1562.445 145.8 
L 1576.305 145.8 
L 1590.165 145.8 
L 1604.025 145.8 
L 1617.885 145.8 
L 1631.745 145.8 
L 1645.605 145.8 
L 1659.465 145.8 
L 1673.325 145.8 
L 1687.185 145.8 
L 1701.045 145.8 
L 1714.905 145.8 
L 1728.765 145.8 
L 1742.625 145.8 
L 1756.485 145.8 
L 1770.345 145.8 
L 1784.205 145.8 
L 1798.065 145.8 
L 1811.925 145.8 
L 1825.785 145.8 
L 1839.645 145.8 
L 1853.505 145.8 
L 1867.365 145.8 
L 1881.225 145.8 
L 1895.085 145.8 
L 1908.945 145.8 
L 1922.805 145.8 
L 1936.665 145.8 
L 1950.525 145.8 
L 1964.385 145.8 
L 1978.245 145.8 
L 1992.105 145.8 
L 2005.965 145.8 
L 2019.825 145.8 
L 2033.685 145.8 
L 2047.545 145.8 
L 2061.405 145.8 
L 2075.265 145.8 
L 2089.125 145.8 
L 2102.985 145.8 
L 2116.845 145.8 
L 2130.705 145.8 
L 2144.565 145.8 
L 2158.425 145.8 
L 2172.285 145.8 
L 2186.145 145.8 
L 2200.005 145.8 
L 2213.865 145.8 
L 2227.725 145.8 
L 2241.585 145.8 
L 2255.445 145.8 
L 2269.305 145.8 
L 2283.165 145.8 
L 2283.165 7.2 
L 2269.305 7.2 
L 2255.445 7.2 
L 2241.585 7.2 
L 2227.725 7.2 
L 2213.865 7.2 
L 2200.005 7.2 
L 2186.145 7.2 
L 2172.285 7.2 
L 2158.425 7.2 
L 2144.565 7.2 
L 2130.705 7.2 
L 2116.845 7.2 
L 2102.985 7.2 
L 2089.125 7.2 
L 2075.265 7.2 
L 2061.405 7.2 
L 2047.545 7.2 
L 2033.685 7.2 
L 2019.825 7.2 
L 2005.965 7.2 
L 1992.105 7.2 
L 1978.245 7.2 
L 1964.385 7.2 
L 1950.525 7.2 
L 1936.665 7.2 
L 1922.805 7.2 
L 1908.945 7.2 
L 1895.085 7.2 
L 1881.225 7.2 
L 1867.365 7.2 
L 1853.505 7.2 
L 1839.645 7.2 
L 1825.785 7.2 
L 1811.925 7.2 
L 1798.065 7.2 
L 1784.205 7.2 
L 1770.345 7.2 
L 1756.485 7.2 
L 1742.625 7.2 
L 1728.765 7.2 
L 1714.905 7.2 
L 1701.045 7.2 
L 1687.185 7.2 
L 1673.325 7.2 
L 1659.465 7.2 
L 1645.605 7.2 
L 1631.745 7.2 
L 1617.885 7.2 
L 1604.025 7.2 
L 1590.165 7.2 
L 1576.305 7.2 
L 1562.445 7.2 
L 1548.585 7.2 
L 1534.725 7.2 
L 1520.865 7.2 
L 1507.005 7.2 
L 1493.145 7.2 
L 1479.285 7.2 
L 1465.425 7.2 
L 1451.565 7.2 
L 1437.705 7.2 
L 1423.845 7.2 
L 1409.985 7.2 
L 1396.125 7.2 
L 1382.265 7.2 
L 1368.405 7.2 
L 1354.545 7.2 
L 1340.685 7.2 
L 1326.825 7.2 
L 1312.965 7.2 
L 1299.105 7.2 
L 1285.245 7.2 
L 1271.385 7.2 
L 1257.525 7.2 
L 1243.665 7.2 
L 1229.805 7.2 
L 1215.945 7.2 
L 1202.085 7.2 
L 1188.225 7.2 
L 1174.365 7.2 
L 1160.505 7.2 
L 1146.645 7.2 
L 1132.785 7.2 
L 1118.925 7.2 
L 1105.065 7.2 
L 1091.205 7.2 
L 1077.345 7.2 
L 1063.485 7.2 
L 1049.625 7.2 
L 1035.765 7.2 
L 1021.905 7.2 
L 1008.045 7.2 
L 994.185 7.2 
L 980.325 7.2 
L 966.465 7.2 
L 952.605 7.2 
L 938.745 7.2 
L 924.885 7.2 
L 911.025 7.2 
L 897.165 7.2 
L 883.305 7.2 
L 869.445 7.2 
L 855.585 7.2 
L 841.725 7.2 
L 827.865 7.2 
L 814.005 7.2 
L 800.145 7.2 
L 786.285 7.2 
L 772.425 7.2 
L 758.565 7.2 
L 744.705 7.2 
L 730.845 7.2 
L 716.985 7.2 
L 703.125 7.2 
L 689.265 7.2 
L 675.405 7.2 
L 661.545 7.2 
L 647.685 7.2 
L 633.825 7.2 
L 619.965 7.2 
L 606.105 7.2 
L 592.245 7.2 
L 578.385 7.2 
L 564.525 7.2 
L 550.665 7.2 
L 536.805 7.2 
L 522.945 7.2 
L 509.085 7.2 
L 495.225 7.2 
L 481.365 7.2 
L 467.505 7.2 
L 453.645 7.2 
L 439.785 7.2 
L 425.925 7.2 
L 412.065 7.2 
L 398.205 7.2 
L 384.345 7.2 
L 370.485 7.2 
L 356.625 7.2 
L 342.765 7.2 
L 328.905 7.2 
L 315.045 7.2 
L 301.185 7.2 
L 287.325 7.2 
L 273.465 7.2 
L 259.605 7.2 
L 245.745 7.2 
L 231.885 7.2 
L 218.025 7.2 
L 204.165 7.2 
L 190.305 7.2 
L 176.445 7.2 
L 162.585 7.2 
L 148.725 7.2 
L 134.865 7.2 
L 121.005 7.2 
L 107.145 7.2 
L 93.285 7.2 
L 79.425 7.2 
L 65.565 7.2 
L 51.705 7.2 
L 37.845 7.2 
L 23.985 7.2 
L 10.125 7.2 
L -3.735 7.2 
L -17.595 7.2 
L -31.455 7.2 
L -45.315 7.2 
L -59.175 7.2 
L -73.035 7.2 
L -86.895 7.2 
L -100.755 7.2 
L -114.615 7.2 
L -128.475 7.2 
L -142.335 7.2 
L -156.195 7.2 
L -170.055 7.2 
L -183.915 7.2 
L -197.775 7.2 
L -211.635 7.2 
L -225.495 7.2 
L -239.355 7.2 
L -253.215 7.2 
L -267.075 7.2 
L -280.935 7.2 
L -294.795 7.2 
L -308.655 7.2 
L -322.515 7.2 
L -336.375 7.2 
L -350.235 7.2 
L -364.095 7.2 
L -377.955 7.2 
L -391.815 7.2 
L -405.675 7.2 
L -419.535 7.2 
L -433.395 7.2 
L -447.255 7.2 
L -461.115 7.2 
L -474.975 7.2 
L -488.835 7.2 
L -502.695 7.2 
L -516.555 7.2 
L -530.415 7.2 
L -544.275 7.2 
L -558.135 7.2 
L -571.995 7.2 
L -585.855 7.2 
L -599.715 7.2 
L -613.575 7.2 
z
" style="fill:#c7c7c7;"/>
   </g>
   <g id="PathCollection_1"/>
   <g id="PathCollection_2">
    <path clip-path="url(#pfa0ff2e453)" d="M -613.575 225.495 
L -592.785 215.1 
L -613.575 204.705 
z
" style="fill:#dddddd;stroke:#dddddd;stroke-width:0.5;"/>
    <path clip-path="url(#pfa0ff2e453)" d="M -613.575 86.895 
L -592.785 76.5 
L -613.575 66.105 
z
" style="fill:#dddddd;stroke:#dddddd;stroke-width:0.5;"/>
   </g>
   <g id="PathCollection_3">
    <path clip-path="url(#pfa0ff2e453)" d="M -1 284.4 
L 922.15 284.4 
L 922.15 284.4 
" style="fill:none;stroke:#555555;stroke-width:0.5;"/>
    <path clip-path="url(#pfa0ff2e453)" d="M -1 145.8 
L 922.15 145.8 
L 922.15 145.8 
" style="fill:none;stroke:#555555;stroke-width:0.5;"/>
   </g>
   <g id="PathCollection_4">
    <path clip-path="url(#pfa0ff2e453)" d="M -1 145.8 
L 922.15 145.8 
L 922.15 145.8 
" style="fill:none;stroke:#555555;stroke-width:0.5;"/>
    <path clip-path="url(#pfa0ff2e453)" d="M -1 7.2 
L 922.15 7.2 
L 922.15 7.2 
" style="fill:none;stroke:#555555;stroke-width:0.5;"/>
   </g>
   <g id="PatchCollection_1">
    <path clip-path="url(#pfa0ff2e453)" d="M 79.425 158.735954 
C 83.100715 158.735954 86.626377 157.275577 89.2255 154.676454 
C 91.824623 152.077331 93.285 148.551669 93.285 144.875954 
C 93.285 141.200239 91.824623 137.674577 89.2255 135.075454 
C 86.626377 132.476331 83.100715 131.015954 79.425 131.015954 
C 75.749285 131.015954 72.223623 132.476331 69.6245 135.075454 
C 67.025377 137.674577 65.565 141.200239 65.565 144.875954 
C 65.565 148.551669 67.025377 152.077331 69.6245 154.676454 
C 72.223623 157.275577 75.749285 158.735954 79.425 158.735954 
z
" style="fill:#008000;stroke:#008000;"/>
    <path clip-path="url(#pfa0ff2e453)" d="M 191.668548 142.630783 
L 142.115144 160.257311 
L 141.893399 149.171528 
L 79.535873 150.418845 
L 79.314127 139.333063 
L 141.671654 138.085746 
L 141.449909 126.999963 
z
" style="fill:#008000;stroke:#008000;"/>
    <path clip-path="url(#pfa0ff2e453)" d="M 772.425 170.748 
L 772.425 120.852 
L 841.725 120.852 
L 841.725 170.748 
z
" style="fill:#f1b514;stroke:#302404;stroke-width:0.5;"/>
    <path clip-path="url(#pfa0ff2e453)" d="M 270.1386 131.94 
L 270.1386 62.64 
L 308.9466 62.64 
L 308.9466 131.94 
z
" style="fill:#d95558;stroke:#831d20;stroke-width:0.5;"/>
    <path clip-path="url(#pfa0ff2e453)" d="M 270.1386 284.4 
L 270.1386 173.52 
L 308.9466 173.52 
L 308.9466 284.4 
z
" style="fill:#d95558;stroke:#831d20;stroke-width:0.5;"/>
    <path clip-path="url(#pfa0ff2e453)" d="M 547.3386 76.5 
L 547.3386 7.2 
L 586.1466 7.2 
L 586.1466 76.5 
z
" style="fill:#d95558;stroke:#831d20;stroke-width:0.5;"/>
    <path clip-path="url(#pfa0ff2e453)" d="M 547.3386 180.45 
L 547.3386 111.15 
L 586.1466 111.15 
L 586.1466 180.45 
z
" style="fill:#d95558;stroke:#831d20;stroke-width:0.5;"/>
    <path clip-path="url(#pfa0ff2e453)" d="M 547.3386 284.4 
L 547.3386 215.1 
L 586.1466 215.1 
L 586.1466 284.4 
z
" style="fill:#d95558;stroke:#831d20;stroke-width:0.5;"/>
    <path clip-path="url(#pfa0ff2e453)" d="M 720.5886 96.925693 
L 720.5886 78.250307 
L 745.5366 78.250307 
L 745.5366 96.925693 
z
" style="fill:#d95558;stroke:#831d20;stroke-width:0.5;"/>
    <path clip-path="url(#pfa0ff2e453)" d="M 79.425 151.805954 
C 81.262857 151.805954 83.025689 151.075765 84.32525 149.776204 
C 85.624811 148.476642 86.355 146.713811 86.355 144.875954 
C 86.355 143.038096 85.624811 141.275265 84.32525 139.975704 
C 83.025689 138.676142 81.262857 137.945954 79.425 137.945954 
C 77.587143 137.945954 75.824311 138.676142 74.52475 139.975704 
C 73.225189 141.275265 72.495 143.038096 72.495 144.875954 
C 72.495 146.713811 73.225189 148.476642 74.52475 149.776204 
C 75.824311 151.075765 77.587143 151.805954 79.425 151.805954 
z
" style="fill:#1d7eea;stroke:#00478f;stroke-width:0.5;"/>
   </g>
   <g id="line2d_1">
    <path clip-path="url(#pfa0ff2e453)" d="M 79.425 144.875954 
" style="fill:none;stroke:#ffd700;stroke-linecap:square;stroke-width:2;"/>
   </g>
   <g id="line2d_2">
    <path clip-path="url(#pfa0ff2e453)" d="M 79.425 144.875954 
L 91.899 144.626474 
L 104.373 144.376994 
L 116.847 144.127514 
L 129.321 143.878034 
L 141.795 143.628554 
" style="fill:none;stroke:#ffd700;stroke-linecap:square;stroke-width:2;"/>
   </g>
   <g id="line2d_3">
    <path clip-path="url(#pfa0ff2e453)" d="M 79.425 144.875954 
L 91.899 144.626474 
L 104.370878 144.289909 
L 116.832729 143.691933 
L 129.265616 142.658002 
L 141.632085 141.014071 
" style="fill:none;stroke:#ffd700;stroke-linecap:square;stroke-width:2;"/>
   </g>
   <g id="line2d_4">
    <path clip-path="url(#pfa0ff2e453)" d="M 79.425 144.875954 
L 91.899 144.626474 
L 104.374362 144.464094 
L 116.850157 144.563317 
L 129.314442 145.099305 
L 141.736752 146.24746 
" style="fill:none;stroke:#ffd700;stroke-linecap:square;stroke-width:2;"/>
   </g>
   <g id="line2d_5">
    <path clip-path="url(#pfa0ff2e453)" d="M 141.736752 146.24746 
L 154.057969 148.181274 
L 166.232287 150.893432 
L 178.259051 154.201062 
L 190.162989 157.927898 
L 201.986388 161.903576 
" style="fill:none;stroke:#ffd700;stroke-linecap:square;stroke-width:2;"/>
   </g>
   <g id="line2d_6">
    <path clip-path="url(#pfa0ff2e453)" d="M 141.736752 146.24746 
L 154.057969 148.181274 
L 166.211678 150.981159 
L 178.137083 154.63311 
L 189.774526 159.118857 
L 201.065793 164.415961 
" style="fill:none;stroke:#ffd700;stroke-linecap:square;stroke-width:2;"/>
   </g>
   <g id="line2d_7">
    <path clip-path="url(#pfa0ff2e453)" d="M 201.986388 161.903576 
L 213.781813 165.961733 
L 225.577238 170.019889 
L 237.372662 174.078046 
L 249.168087 178.136202 
L 260.963511 182.194359 
" style="fill:none;stroke:#ffd700;stroke-linecap:square;stroke-width:2;"/>
   </g>
   <g id="line2d_8">
    <path clip-path="url(#pfa0ff2e453)" d="M 201.986388 161.903576 
L 213.781813 165.961733 
L 225.605212 169.937411 
L 237.509151 173.664247 
L 249.535914 176.971877 
L 261.710232 179.684035 
" style="fill:none;stroke:#ffd700;stroke-linecap:square;stroke-width:2;"/>
   </g>
   <g id="line2d_9">
    <path clip-path="url(#pfa0ff2e453)" d="M 201.986388 161.903576 
L 213.781813 165.961733 
L 225.548544 170.10212 
L 237.225664 174.488229 
L 248.741687 179.280376 
L 260.007658 184.632732 
" style="fill:none;stroke:#ffd700;stroke-linecap:square;stroke-width:2;"/>
   </g>
   <g id="line2d_10">
    <path clip-path="url(#pfa0ff2e453)" d="M 261.710232 179.684035 
L 274.031449 181.61785 
L 286.451279 182.765742 
L 298.913073 183.301589 
L 311.386374 183.400759 
L 323.859241 183.238378 
" style="fill:none;stroke:#ffd700;stroke-dasharray:7.4,3.2;stroke-dashoffset:0;stroke-width:2;"/>
   </g>
   <g id="line2d_11">
    <path clip-path="url(#pfa0ff2e453)" d="M 261.710232 179.684035 
L 274.031449 181.61785 
L 286.458536 182.675919 
L 298.929329 182.85295 
L 311.381443 182.148057 
L 323.752587 180.564767 
" style="fill:none;stroke:#ffd700;stroke-dasharray:7.4,3.2;stroke-dashoffset:0;stroke-width:2;"/>
   </g>
   <g id="line2d_12">
    <path clip-path="url(#pfa0ff2e453)" d="M 260.963511 182.194359 
L 272.758936 186.252515 
L 284.554361 190.310672 
L 296.349785 194.368828 
L 308.14521 198.426985 
L 319.940634 202.485142 
" style="fill:none;stroke:#ffd700;stroke-dasharray:7.4,3.2;stroke-dashoffset:0;stroke-width:2;"/>
   </g>
   <g id="line2d_13">
    <path clip-path="url(#pfa0ff2e453)" d="M 260.963511 182.194359 
L 272.758936 186.252515 
L 284.582335 190.228194 
L 296.486274 193.95503 
L 308.513037 197.26266 
L 320.687355 199.974818 
" style="fill:none;stroke:#ffd700;stroke-dasharray:7.4,3.2;stroke-dashoffset:0;stroke-width:2;"/>
   </g>
   <g id="line2d_14">
    <path clip-path="url(#pfa0ff2e453)" d="M 260.963511 182.194359 
L 272.758936 186.252515 
L 284.525667 190.392903 
L 296.202787 194.779012 
L 307.71881 199.571158 
L 318.984781 204.923514 
" style="fill:none;stroke:#ffd700;stroke-dasharray:7.4,3.2;stroke-dashoffset:0;stroke-width:2;"/>
   </g>
   <g id="line2d_15">
    <path clip-path="url(#pfa0ff2e453)" d="M 260.007658 184.632732 
L 270.910547 190.689054 
L 281.407625 197.425609 
L 291.561217 204.670472 
L 301.455208 212.266655 
L 311.187934 220.068759 
" style="fill:none;stroke:#ffd700;stroke-dasharray:7.4,3.2;stroke-dashoffset:0;stroke-width:2;"/>
   </g>
   <g id="line2d_16">
    <path clip-path="url(#pfa0ff2e453)" d="M 260.007658 184.632732 
L 270.910547 190.689054 
L 281.358082 197.500884 
L 291.298 205.034145 
L 300.680579 213.251154 
L 309.458882 222.110805 
" style="fill:none;stroke:#ffd700;stroke-dasharray:7.4,3.2;stroke-dashoffset:0;stroke-width:2;"/>
   </g>
   <g id="line2d_17">
    <path clip-path="url(#pfa0ff2e453)" d="M 201.065793 164.415961 
L 211.954399 170.497923 
L 222.435596 177.259161 
L 232.57211 184.527898 
L 242.448198 192.147343 
L 252.162538 199.972328 
" style="fill:none;stroke:#ffd700;stroke-linecap:square;stroke-width:2;"/>
   </g>
   <g id="line2d_18">
    <path clip-path="url(#pfa0ff2e453)" d="M 201.065793 164.415961 
L 211.954399 170.497923 
L 222.385875 177.334319 
L 232.308039 184.890951 
L 241.671255 193.130016 
L 250.428685 202.010299 
" style="fill:none;stroke:#ffd700;stroke-linecap:square;stroke-width:2;"/>
   </g>
   <g id="line2d_19">
    <path clip-path="url(#pfa0ff2e453)" d="M 141.795 143.628554 
L 154.269 143.379074 
L 166.743 143.129594 
L 179.217 142.880114 
L 191.691 142.630634 
L 204.165 142.381154 
" style="fill:none;stroke:#ffd700;stroke-linecap:square;stroke-width:2;"/>
   </g>
   <g id="line2d_20">
    <path clip-path="url(#pfa0ff2e453)" d="M 141.795 143.628554 
L 154.269 143.379074 
L 166.740878 143.042509 
L 179.202729 142.444533 
L 191.635616 141.410602 
L 204.002085 139.766671 
" style="fill:none;stroke:#ffd700;stroke-linecap:square;stroke-width:2;"/>
   </g>
   <g id="line2d_21">
    <path clip-path="url(#pfa0ff2e453)" d="M 141.795 143.628554 
L 154.269 143.379074 
L 166.744362 143.216694 
L 179.220157 143.315917 
L 191.684442 143.851905 
L 204.106752 145.00006 
" style="fill:none;stroke:#ffd700;stroke-linecap:square;stroke-width:2;"/>
   </g>
   <g id="line2d_22">
    <path clip-path="url(#pfa0ff2e453)" d="M 204.106752 145.00006 
L 216.427969 146.933874 
L 228.602287 149.646032 
L 240.629051 152.953662 
L 252.532989 156.680498 
L 264.356388 160.656176 
" style="fill:none;stroke:#ffd700;stroke-linecap:square;stroke-width:2;"/>
   </g>
   <g id="line2d_23">
    <path clip-path="url(#pfa0ff2e453)" d="M 204.106752 145.00006 
L 216.427969 146.933874 
L 228.581678 149.733759 
L 240.507083 153.38571 
L 252.144526 157.871457 
L 263.435793 163.168561 
" style="fill:none;stroke:#ffd700;stroke-linecap:square;stroke-width:2;"/>
   </g>
   <g id="line2d_24">
    <path clip-path="url(#pfa0ff2e453)" d="M 264.356388 160.656176 
L 276.151813 164.714333 
L 287.947238 168.772489 
L 299.742662 172.830646 
L 311.538087 176.888802 
L 323.333511 180.946959 
" style="fill:none;stroke:#ffd700;stroke-linecap:square;stroke-width:2;"/>
   </g>
   <g id="line2d_25">
    <path clip-path="url(#pfa0ff2e453)" d="M 264.356388 160.656176 
L 276.151813 164.714333 
L 287.975212 168.690011 
L 299.879151 172.416847 
L 311.905914 175.724477 
L 324.080232 178.436635 
" style="fill:none;stroke:#ffd700;stroke-linecap:square;stroke-width:2;"/>
   </g>
   <g id="line2d_26">
    <path clip-path="url(#pfa0ff2e453)" d="M 264.356388 160.656176 
L 276.151813 164.714333 
L 287.918544 168.85472 
L 299.595664 173.240829 
L 311.111687 178.032976 
L 322.377658 183.385332 
" style="fill:none;stroke:#ffd700;stroke-linecap:square;stroke-width:2;"/>
   </g>
   <g id="line2d_27">
    <path clip-path="url(#pfa0ff2e453)" d="M 324.080232 178.436635 
L 336.401449 180.37045 
L 348.821279 181.518342 
L 361.283073 182.054189 
L 373.756374 182.153359 
L 386.229241 181.990978 
" style="fill:none;stroke:#ffd700;stroke-linecap:square;stroke-width:2;"/>
   </g>
   <g id="line2d_28">
    <path clip-path="url(#pfa0ff2e453)" d="M 324.080232 178.436635 
L 336.401449 180.37045 
L 348.828536 181.428519 
L 361.299329 181.60555 
L 373.751443 180.900657 
L 386.122587 179.317367 
" style="fill:none;stroke:#ffd700;stroke-linecap:square;stroke-width:2;"/>
   </g>
   <g id="line2d_29">
    <path clip-path="url(#pfa0ff2e453)" d="M 386.122587 179.317367 
L 398.350875 176.8636 
L 410.399442 173.638407 
L 422.275373 169.824523 
L 434.010841 165.597009 
L 445.655305 161.124287 
" style="fill:none;stroke:#ffd700;stroke-linecap:square;stroke-width:2;"/>
   </g>
   <g id="line2d_30">
    <path clip-path="url(#pfa0ff2e453)" d="M 386.122587 179.317367 
L 398.350875 176.8636 
L 410.375137 173.551631 
L 422.135222 169.398027 
L 433.5723 164.423566 
L 444.629158 158.653134 
" style="fill:none;stroke:#ffd700;stroke-linecap:square;stroke-width:2;"/>
   </g>
   <g id="line2d_31">
    <path clip-path="url(#pfa0ff2e453)" d="M 444.629158 158.653134 
L 455.250487 152.115596 
L 465.43601 144.916642 
L 475.255672 137.225238 
L 484.800292 129.194466 
L 494.174606 120.965188 
" style="fill:none;stroke:#ffd700;stroke-linecap:square;stroke-width:2;"/>
   </g>
   <g id="line2d_32">
    <path clip-path="url(#pfa0ff2e453)" d="M 444.629158 158.653134 
L 455.250487 152.115596 
L 465.383152 144.843656 
L 474.976466 136.873692 
L 483.982439 128.245571 
L 492.356019 119.002457 
" style="fill:none;stroke:#ffd700;stroke-linecap:square;stroke-width:2;"/>
   </g>
   <g id="line2d_33">
    <path clip-path="url(#pfa0ff2e453)" d="M 494.174606 120.965188 
L 503.491291 112.670609 
L 512.807977 104.376029 
L 522.124662 96.08145 
L 531.441347 87.78687 
L 540.758033 79.492291 
" style="fill:none;stroke:#ffd700;stroke-linecap:square;stroke-width:2;"/>
   </g>
   <g id="line2d_34">
    <path clip-path="url(#pfa0ff2e453)" d="M 494.174606 120.965188 
L 503.491291 112.670609 
L 512.749781 104.311234 
L 521.830798 95.759732 
L 530.606544 86.895774 
L 538.935472 77.611443 
" style="fill:none;stroke:#ffd700;stroke-linecap:square;stroke-width:2;"/>
   </g>
   <g id="line2d_35">
    <path clip-path="url(#pfa0ff2e453)" d="M 494.174606 120.965188 
L 503.491291 112.670609 
L 512.865605 104.44133 
L 522.410225 96.410558 
L 532.229887 88.719155 
L 542.41541 81.5202 
" style="fill:none;stroke:#ffd700;stroke-linecap:square;stroke-width:2;"/>
   </g>
   <g id="line2d_36">
    <path clip-path="url(#pfa0ff2e453)" d="M 492.356019 119.002457 
L 500.055318 109.190586 
L 507.116688 98.909201 
L 513.664271 88.292581 
L 519.836286 77.452872 
L 525.779779 66.485937 
" style="fill:none;stroke:#ffd700;stroke-linecap:square;stroke-width:2;"/>
   </g>
   <g id="line2d_37">
    <path clip-path="url(#pfa0ff2e453)" d="M 492.356019 119.002457 
L 500.055318 109.190586 
L 507.041821 98.859043 
L 513.280579 88.05951 
L 518.740382 76.846011 
L 523.393918 65.27464 
" style="fill:none;stroke:#ffd700;stroke-linecap:square;stroke-width:2;"/>
   </g>
   <g id="line2d_38">
    <path clip-path="url(#pfa0ff2e453)" d="M 445.655305 161.124287 
L 457.268327 156.570345 
L 468.881349 152.016403 
L 480.494371 147.462461 
L 492.107394 142.908519 
L 503.720416 138.354576 
" style="fill:none;stroke:#ffd700;stroke-linecap:square;stroke-width:2;"/>
   </g>
   <g id="line2d_39">
    <path clip-path="url(#pfa0ff2e453)" d="M 445.655305 161.124287 
L 457.268327 156.570345 
L 468.8492 151.935461 
L 480.330137 147.05887 
L 491.632931 141.783425 
L 502.662178 135.958862 
" style="fill:none;stroke:#ffd700;stroke-linecap:square;stroke-width:2;"/>
   </g>
   <g id="line2d_40">
    <path clip-path="url(#pfa0ff2e453)" d="M 445.655305 161.124287 
L 457.268327 156.570345 
L 468.912791 152.097623 
L 480.648258 147.87011 
L 492.524189 144.056226 
L 504.572756 140.831032 
" style="fill:none;stroke:#ffd700;stroke-linecap:square;stroke-width:2;"/>
   </g>
   <g id="line2d_41">
    <path clip-path="url(#pfa0ff2e453)" d="M 504.572756 140.831032 
L 516.801044 138.377265 
L 529.161134 136.70454 
L 541.589066 135.641534 
L 554.046982 135.014326 
L 566.515539 134.648453 
" style="fill:none;stroke:#ffd700;stroke-dasharray:7.4,3.2;stroke-dashoffset:0;stroke-width:2;"/>
   </g>
   <g id="line2d_42">
    <path clip-path="url(#pfa0ff2e453)" d="M 504.572756 140.831032 
L 516.801044 138.377265 
L 529.172188 136.793975 
L 541.624302 136.089083 
L 554.095095 136.266114 
L 566.522182 137.324183 
" style="fill:none;stroke:#ffd700;stroke-dasharray:7.4,3.2;stroke-dashoffset:0;stroke-width:2;"/>
   </g>
   <g id="line2d_43">
    <path clip-path="url(#pfa0ff2e453)" d="M 503.720416 138.354576 
L 515.333438 133.800634 
L 526.946461 129.246692 
L 538.559483 124.69275 
L 550.172505 120.138808 
L 561.785528 115.584866 
" style="fill:none;stroke:#ffd700;stroke-dasharray:7.4,3.2;stroke-dashoffset:0;stroke-width:2;"/>
   </g>
   <g id="line2d_44">
    <path clip-path="url(#pfa0ff2e453)" d="M 503.720416 138.354576 
L 515.333438 133.800634 
L 526.914312 129.16575 
L 538.395249 124.289159 
L 549.698043 119.013715 
L 560.72729 113.189151 
" style="fill:none;stroke:#ffd700;stroke-dasharray:7.4,3.2;stroke-dashoffset:0;stroke-width:2;"/>
   </g>
   <g id="line2d_45">
    <path clip-path="url(#pfa0ff2e453)" d="M 503.720416 138.354576 
L 515.333438 133.800634 
L 526.977902 129.327912 
L 538.713369 125.100399 
L 550.589301 121.286515 
L 562.637867 118.061322 
" style="fill:none;stroke:#ffd700;stroke-dasharray:7.4,3.2;stroke-dashoffset:0;stroke-width:2;"/>
   </g>
   <g id="line2d_46">
    <path clip-path="url(#pfa0ff2e453)" d="M 502.662178 135.958862 
L 513.298861 129.446336 
L 523.501297 122.27137 
L 533.339031 114.603096 
L 542.902523 106.594807 
L 552.296176 98.387611 
" style="fill:none;stroke:#ffd700;stroke-linecap:square;stroke-width:2;"/>
   </g>
   <g id="line2d_47">
    <path clip-path="url(#pfa0ff2e453)" d="M 502.662178 135.958862 
L 513.298861 129.446336 
L 523.44861 122.198261 
L 533.060653 114.250893 
L 542.086905 105.643989 
L 550.482213 96.420605 
" style="fill:none;stroke:#ffd700;stroke-linecap:square;stroke-width:2;"/>
   </g>
   <g id="line2d_48">
    <path clip-path="url(#pfa0ff2e453)" d="M 552.296176 98.387611 
L 561.632355 90.114979 
L 570.968533 81.842346 
L 580.304712 73.569714 
L 589.64089 65.297082 
L 598.977069 57.024449 
" style="fill:none;stroke:#ffd700;stroke-dasharray:7.4,3.2;stroke-dashoffset:0;stroke-width:2;"/>
   </g>
   <g id="line2d_49">
    <path clip-path="url(#pfa0ff2e453)" d="M 552.296176 98.387611 
L 561.632355 90.114979 
L 570.91049 81.777414 
L 580.011606 73.247305 
L 588.808186 64.404023 
L 597.158939 55.139318 
" style="fill:none;stroke:#ffd700;stroke-dasharray:7.4,3.2;stroke-dashoffset:0;stroke-width:2;"/>
   </g>
   <g id="line2d_50">
    <path clip-path="url(#pfa0ff2e453)" d="M 552.296176 98.387611 
L 561.632355 90.114979 
L 571.026007 81.907783 
L 580.589499 73.899494 
L 590.427234 66.231219 
L 600.629669 59.056253 
" style="fill:none;stroke:#ffd700;stroke-dasharray:7.4,3.2;stroke-dashoffset:0;stroke-width:2;"/>
   </g>
   <g id="line2d_51">
    <path clip-path="url(#pfa0ff2e453)" d="M 550.482213 96.420605 
L 558.20458 86.62688 
L 565.290125 76.36214 
L 571.862673 65.760958 
L 578.060179 54.935803 
L 584.029463 43.982884 
" style="fill:none;stroke:#ffd700;stroke-dasharray:7.4,3.2;stroke-dashoffset:0;stroke-width:2;"/>
   </g>
   <g id="line2d_52">
    <path clip-path="url(#pfa0ff2e453)" d="M 550.482213 96.420605 
L 558.20458 86.62688 
L 565.215377 76.311806 
L 571.479531 65.526984 
L 576.965706 54.326364 
L 581.646459 42.765977 
" style="fill:none;stroke:#ffd700;stroke-dasharray:7.4,3.2;stroke-dashoffset:0;stroke-width:2;"/>
   </g>
   <g id="line2d_53">
    <path clip-path="url(#pfa0ff2e453)" d="M 542.41541 81.5202 
L 553.036738 74.982662 
L 564.052248 69.132161 
L 575.342596 63.830133 
L 586.812026 58.926539 
L 598.381961 54.264415 
" style="fill:none;stroke:#ffd700;stroke-dasharray:7.4,3.2;stroke-dashoffset:0;stroke-width:2;"/>
   </g>
   <g id="line2d_54">
    <path clip-path="url(#pfa0ff2e453)" d="M 542.41541 81.5202 
L 553.036738 74.982662 
L 564.093597 69.21223 
L 575.530675 64.23777 
L 587.29076 60.084166 
L 599.315021 56.772197 
" style="fill:none;stroke:#ffd700;stroke-dasharray:7.4,3.2;stroke-dashoffset:0;stroke-width:2;"/>
   </g>
   <g id="line2d_55">
    <path clip-path="url(#pfa0ff2e453)" d="M 540.758033 79.492291 
L 550.074718 71.197711 
L 559.391404 62.903132 
L 568.708089 54.608552 
L 578.024775 46.313973 
L 587.34146 38.019393 
" style="fill:none;stroke:#ffd700;stroke-dasharray:7.4,3.2;stroke-dashoffset:0;stroke-width:2;"/>
   </g>
   <g id="line2d_56">
    <path clip-path="url(#pfa0ff2e453)" d="M 540.758033 79.492291 
L 550.074718 71.197711 
L 559.333208 62.838336 
L 568.414225 54.286834 
L 577.189971 45.422877 
L 585.518899 36.138546 
" style="fill:none;stroke:#ffd700;stroke-dasharray:7.4,3.2;stroke-dashoffset:0;stroke-width:2;"/>
   </g>
   <g id="line2d_57">
    <path clip-path="url(#pfa0ff2e453)" d="M 540.758033 79.492291 
L 550.074718 71.197711 
L 559.449032 62.968433 
L 568.993652 54.937661 
L 578.813314 47.246258 
L 588.998837 40.047303 
" style="fill:none;stroke:#ffd700;stroke-dasharray:7.4,3.2;stroke-dashoffset:0;stroke-width:2;"/>
   </g>
   <g id="line2d_58">
    <path clip-path="url(#pfa0ff2e453)" d="M 538.935472 77.611443 
L 546.657839 67.817718 
L 553.743384 57.552978 
L 560.315931 46.951796 
L 566.513438 36.126641 
L 572.482722 25.173722 
" style="fill:none;stroke:#ffd700;stroke-dasharray:7.4,3.2;stroke-dashoffset:0;stroke-width:2;"/>
   </g>
   <g id="line2d_59">
    <path clip-path="url(#pfa0ff2e453)" d="M 538.935472 77.611443 
L 546.657839 67.817718 
L 553.668635 57.502644 
L 559.932789 46.717822 
L 565.418965 35.517202 
L 570.099718 23.956815 
" style="fill:none;stroke:#ffd700;stroke-dasharray:7.4,3.2;stroke-dashoffset:0;stroke-width:2;"/>
   </g>
   <g id="line2d_60">
    <path clip-path="url(#pfa0ff2e453)" d="M 525.779779 66.485937 
L 531.646592 55.477704 
L 537.513406 44.469472 
L 543.380219 33.46124 
L 549.247032 22.453007 
L 555.113845 11.444775 
" style="fill:none;stroke:#ffd700;stroke-dasharray:7.4,3.2;stroke-dashoffset:0;stroke-width:2;"/>
   </g>
   <g id="line2d_61">
    <path clip-path="url(#pfa0ff2e453)" d="M 525.779779 66.485937 
L 531.646592 55.477704 
L 537.436368 44.428846 
L 542.993109 33.261228 
L 548.155247 21.906238 
L 552.752619 10.31167 
" style="fill:none;stroke:#ffd700;stroke-dasharray:7.4,3.2;stroke-dashoffset:0;stroke-width:2;"/>
   </g>
   <g id="line2d_62">
    <path clip-path="url(#pfa0ff2e453)" d="M 525.779779 66.485937 
L 531.646592 55.477704 
L 537.590085 44.510769 
L 543.762101 33.67106 
L 550.309684 23.05444 
L 557.371053 12.773055 
" style="fill:none;stroke:#ffd700;stroke-dasharray:7.4,3.2;stroke-dashoffset:0;stroke-width:2;"/>
   </g>
   <g id="line2d_63">
    <path clip-path="url(#pfa0ff2e453)" d="M 386.229241 181.990978 
L 398.703241 181.741498 
L 411.177241 181.492018 
L 423.651241 181.242538 
L 436.125241 180.993058 
L 448.599241 180.743578 
" style="fill:none;stroke:#ffd700;stroke-linecap:square;stroke-width:2;"/>
   </g>
   <g id="line2d_64">
    <path clip-path="url(#pfa0ff2e453)" d="M 386.229241 181.990978 
L 398.703241 181.741498 
L 411.175119 181.404934 
L 423.63697 180.806957 
L 436.069857 179.773026 
L 448.436326 178.129096 
" style="fill:none;stroke:#ffd700;stroke-linecap:square;stroke-width:2;"/>
   </g>
   <g id="line2d_65">
    <path clip-path="url(#pfa0ff2e453)" d="M 386.229241 181.990978 
L 398.703241 181.741498 
L 411.178603 181.579118 
L 423.654398 181.678342 
L 436.118683 182.21433 
L 448.540993 183.362484 
" style="fill:none;stroke:#ffd700;stroke-linecap:square;stroke-width:2;"/>
   </g>
   <g id="line2d_66">
    <path clip-path="url(#pfa0ff2e453)" d="M 448.436326 178.129096 
L 460.670355 175.704111 
L 472.726477 172.50728 
L 484.611351 168.721353 
L 496.356734 164.521468 
L 508.011691 160.07616 
" style="fill:none;stroke:#ffd700;stroke-linecap:square;stroke-width:2;"/>
   </g>
   <g id="line2d_67">
    <path clip-path="url(#pfa0ff2e453)" d="M 448.436326 178.129096 
L 460.670355 175.704111 
L 472.702377 172.420447 
L 484.472203 168.294528 
L 495.920955 163.346996 
L 506.991363 157.602599 
" style="fill:none;stroke:#ffd700;stroke-linecap:square;stroke-width:2;"/>
   </g>
   <g id="line2d_68">
    <path clip-path="url(#pfa0ff2e453)" d="M 506.991363 157.602599 
L 517.628046 151.090073 
L 527.830481 143.915107 
L 537.668216 136.246833 
L 547.231707 128.238544 
L 556.62536 120.031348 
" style="fill:none;stroke:#ffd700;stroke-dasharray:7.4,3.2;stroke-dashoffset:0;stroke-width:2;"/>
   </g>
   <g id="line2d_69">
    <path clip-path="url(#pfa0ff2e453)" d="M 506.991363 157.602599 
L 517.628046 151.090073 
L 527.777795 143.841998 
L 537.389837 135.89463 
L 546.416089 127.287726 
L 554.811397 118.064342 
" style="fill:none;stroke:#ffd700;stroke-dasharray:7.4,3.2;stroke-dashoffset:0;stroke-width:2;"/>
   </g>
   <g id="line2d_70">
    <path clip-path="url(#pfa0ff2e453)" d="M 508.011691 160.07616 
L 519.635397 155.549558 
L 531.259104 151.022956 
L 542.88281 146.496355 
L 554.506517 141.969753 
L 566.130223 137.443152 
" style="fill:none;stroke:#ffd700;stroke-dasharray:7.4,3.2;stroke-dashoffset:0;stroke-width:2;"/>
   </g>
   <g id="line2d_71">
    <path clip-path="url(#pfa0ff2e453)" d="M 508.011691 160.07616 
L 519.635397 155.549558 
L 531.227145 150.941939 
L 542.719527 146.092378 
L 554.034703 140.843546 
L 565.077626 135.044953 
" style="fill:none;stroke:#ffd700;stroke-dasharray:7.4,3.2;stroke-dashoffset:0;stroke-width:2;"/>
   </g>
   <g id="line2d_72">
    <path clip-path="url(#pfa0ff2e453)" d="M 508.011691 160.07616 
L 519.635397 155.549558 
L 531.290354 151.10425 
L 543.035737 146.904365 
L 554.92061 143.118438 
L 566.976733 139.921606 
" style="fill:none;stroke:#ffd700;stroke-dasharray:7.4,3.2;stroke-dashoffset:0;stroke-width:2;"/>
   </g>
   <g id="line2d_73">
    <path clip-path="url(#pfa0ff2e453)" d="M 448.599241 180.743578 
L 461.073241 180.494098 
L 473.547241 180.244618 
L 486.021241 179.995138 
L 498.495241 179.745658 
L 510.969241 179.496178 
" style="fill:none;stroke:#ffd700;stroke-linecap:square;stroke-width:2;"/>
   </g>
   <g id="line2d_74">
    <path clip-path="url(#pfa0ff2e453)" d="M 448.599241 180.743578 
L 461.073241 180.494098 
L 473.545119 180.157534 
L 486.00697 179.559557 
L 498.439857 178.525626 
L 510.806326 176.881696 
" style="fill:none;stroke:#ffd700;stroke-linecap:square;stroke-width:2;"/>
   </g>
   <g id="line2d_75">
    <path clip-path="url(#pfa0ff2e453)" d="M 448.599241 180.743578 
L 461.073241 180.494098 
L 473.548603 180.331718 
L 486.024398 180.430942 
L 498.488683 180.96693 
L 510.910993 182.115084 
" style="fill:none;stroke:#ffd700;stroke-linecap:square;stroke-width:2;"/>
   </g>
   <g id="line2d_76">
    <path clip-path="url(#pfa0ff2e453)" d="M 510.806326 176.881696 
L 523.040355 174.456711 
L 535.096477 171.25988 
L 546.981351 167.473953 
L 558.726734 163.274068 
L 570.381691 158.82876 
" style="fill:none;stroke:#ffd700;stroke-dasharray:7.4,3.2;stroke-dashoffset:0;stroke-width:2;"/>
   </g>
   <g id="line2d_77">
    <path clip-path="url(#pfa0ff2e453)" d="M 510.806326 176.881696 
L 523.040355 174.456711 
L 535.072377 171.173047 
L 546.842203 167.047128 
L 558.290955 162.099596 
L 569.361363 156.355199 
" style="fill:none;stroke:#ffd700;stroke-dasharray:7.4,3.2;stroke-dashoffset:0;stroke-width:2;"/>
   </g>
   <g id="line2d_78">
    <path clip-path="url(#pfa0ff2e453)" d="M 510.969241 179.496178 
L 523.443241 179.246698 
L 535.917241 178.997218 
L 548.391241 178.747738 
L 560.865241 178.498258 
L 573.339241 178.248778 
" style="fill:none;stroke:#ffd700;stroke-dasharray:7.4,3.2;stroke-dashoffset:0;stroke-width:2;"/>
   </g>
   <g id="line2d_79">
    <path clip-path="url(#pfa0ff2e453)" d="M 510.969241 179.496178 
L 523.443241 179.246698 
L 535.915119 178.910134 
L 548.37697 178.312157 
L 560.809857 177.278226 
L 573.176326 175.634296 
" style="fill:none;stroke:#ffd700;stroke-dasharray:7.4,3.2;stroke-dashoffset:0;stroke-width:2;"/>
   </g>
   <g id="line2d_80">
    <path clip-path="url(#pfa0ff2e453)" d="M 510.969241 179.496178 
L 523.443241 179.246698 
L 535.918603 179.084318 
L 548.394398 179.183542 
L 560.858683 179.71953 
L 573.280993 180.867684 
" style="fill:none;stroke:#ffd700;stroke-dasharray:7.4,3.2;stroke-dashoffset:0;stroke-width:2;"/>
   </g>
   <g id="line2d_81">
    <path clip-path="url(#pfa0ff2e453)" d="M 510.910993 182.115084 
L 523.23221 184.048898 
L 535.406528 186.761056 
L 547.433292 190.068687 
L 559.337231 193.795523 
L 571.160629 197.771201 
" style="fill:none;stroke:#ffd700;stroke-linecap:square;stroke-width:2;"/>
   </g>
   <g id="line2d_82">
    <path clip-path="url(#pfa0ff2e453)" d="M 510.910993 182.115084 
L 523.23221 184.048898 
L 535.385919 186.848784 
L 547.311324 190.500734 
L 558.948767 194.986481 
L 570.240034 200.283585 
" style="fill:none;stroke:#ffd700;stroke-linecap:square;stroke-width:2;"/>
   </g>
   <g id="line2d_83">
    <path clip-path="url(#pfa0ff2e453)" d="M 571.160629 197.771201 
L 582.956054 201.829357 
L 594.751479 205.887514 
L 606.546903 209.94567 
L 618.342328 214.003827 
L 630.137752 218.061984 
" style="fill:none;stroke:#ffd700;stroke-linecap:square;stroke-width:2;"/>
   </g>
   <g id="line2d_84">
    <path clip-path="url(#pfa0ff2e453)" d="M 571.160629 197.771201 
L 582.956054 201.829357 
L 594.779453 205.805036 
L 606.683392 209.531872 
L 618.710155 212.839502 
L 630.884474 215.55166 
" style="fill:none;stroke:#ffd700;stroke-linecap:square;stroke-width:2;"/>
   </g>
   <g id="line2d_85">
    <path clip-path="url(#pfa0ff2e453)" d="M 571.160629 197.771201 
L 582.956054 201.829357 
L 594.722786 205.969745 
L 606.399905 210.355853 
L 617.915928 215.148 
L 629.181899 220.500356 
" style="fill:none;stroke:#ffd700;stroke-linecap:square;stroke-width:2;"/>
   </g>
   <g id="line2d_86">
    <path clip-path="url(#pfa0ff2e453)" d="M 630.884474 215.55166 
L 643.20569 217.485474 
L 655.62552 218.633366 
L 668.087314 219.169213 
L 680.560615 219.268384 
L 693.033482 219.106003 
" style="fill:none;stroke:#ffd700;stroke-linecap:square;stroke-width:2;"/>
   </g>
   <g id="line2d_87">
    <path clip-path="url(#pfa0ff2e453)" d="M 630.884474 215.55166 
L 643.20569 217.485474 
L 655.632777 218.543543 
L 668.10357 218.720574 
L 680.555684 218.015682 
L 692.926828 216.432392 
" style="fill:none;stroke:#ffd700;stroke-linecap:square;stroke-width:2;"/>
   </g>
   <g id="line2d_88">
    <path clip-path="url(#pfa0ff2e453)" d="M 692.926828 216.432392 
L 705.155116 213.978625 
L 717.203683 210.753431 
L 729.079614 206.939547 
L 740.815082 202.712034 
L 752.459546 198.239312 
" style="fill:none;stroke:#ffd700;stroke-linecap:square;stroke-width:2;"/>
   </g>
   <g id="line2d_89">
    <path clip-path="url(#pfa0ff2e453)" d="M 692.926828 216.432392 
L 705.155116 213.978625 
L 717.179378 210.666655 
L 728.939463 206.513051 
L 740.376541 201.538591 
L 751.4334 195.768159 
" style="fill:none;stroke:#ffd700;stroke-linecap:square;stroke-width:2;"/>
   </g>
   <g id="line2d_90">
    <path clip-path="url(#pfa0ff2e453)" d="M 751.4334 195.768159 
L 762.054728 189.230621 
L 772.240251 182.031666 
L 782.059913 174.340263 
L 791.604533 166.309491 
L 800.978847 158.080213 
" style="fill:none;stroke:#ffd700;stroke-linecap:square;stroke-width:2;"/>
   </g>
   <g id="line2d_91">
    <path clip-path="url(#pfa0ff2e453)" d="M 751.4334 195.768159 
L 762.054728 189.230621 
L 772.240251 182.031666 
L 782.059913 174.340263 
L 791.604533 166.309491 
L 800.978847 158.080213 
" style="fill:none;stroke:#008000;stroke-linecap:square;stroke-width:3;"/>
   </g>
   <g id="line2d_92">
    <path clip-path="url(#pfa0ff2e453)" d="M 79.425 144.875954 
" style="fill:none;stroke:#008000;stroke-linecap:square;stroke-width:3;"/>
   </g>
   <g id="line2d_93">
    <path clip-path="url(#pfa0ff2e453)" d="M 79.425 144.875954 
L 91.899 144.626474 
L 104.373 144.376994 
L 116.847 144.127514 
L 129.321 143.878034 
L 141.795 143.628554 
" style="fill:none;stroke:#008000;stroke-linecap:square;stroke-width:3;"/>
   </g>
   <g id="line2d_94">
    <path clip-path="url(#pfa0ff2e453)" d="M 141.795 143.628554 
L 154.269 143.379074 
L 166.744362 143.216694 
L 179.220157 143.315917 
L 191.684442 143.851905 
L 204.106752 145.00006 
" style="fill:none;stroke:#008000;stroke-linecap:square;stroke-width:3;"/>
   </g>
   <g id="line2d_95">
    <path clip-path="url(#pfa0ff2e453)" d="M 204.106752 145.00006 
L 216.427969 146.933874 
L 228.602287 149.646032 
L 240.629051 152.953662 
L 252.532989 156.680498 
L 264.356388 160.656176 
" style="fill:none;stroke:#008000;stroke-linecap:square;stroke-width:3;"/>
   </g>
   <g id="line2d_96">
    <path clip-path="url(#pfa0ff2e453)" d="M 264.356388 160.656176 
L 276.151813 164.714333 
L 287.975212 168.690011 
L 299.879151 172.416847 
L 311.905914 175.724477 
L 324.080232 178.436635 
" style="fill:none;stroke:#008000;stroke-linecap:square;stroke-width:3;"/>
   </g>
   <g id="line2d_97">
    <path clip-path="url(#pfa0ff2e453)" d="M 324.080232 178.436635 
L 336.401449 180.37045 
L 348.821279 181.518342 
L 361.283073 182.054189 
L 373.756374 182.153359 
L 386.229241 181.990978 
" style="fill:none;stroke:#008000;stroke-linecap:square;stroke-width:3;"/>
   </g>
   <g id="line2d_98">
    <path clip-path="url(#pfa0ff2e453)" d="M 386.229241 181.990978 
L 398.703241 181.741498 
L 411.177241 181.492018 
L 423.651241 181.242538 
L 436.125241 180.993058 
L 448.599241 180.743578 
" style="fill:none;stroke:#008000;stroke-linecap:square;stroke-width:3;"/>
   </g>
   <g id="line2d_99">
    <path clip-path="url(#pfa0ff2e453)" d="M 448.599241 180.743578 
L 461.073241 180.494098 
L 473.548603 180.331718 
L 486.024398 180.430942 
L 498.488683 180.96693 
L 510.910993 182.115084 
" style="fill:none;stroke:#008000;stroke-linecap:square;stroke-width:3;"/>
   </g>
   <g id="line2d_100">
    <path clip-path="url(#pfa0ff2e453)" d="M 510.910993 182.115084 
L 523.23221 184.048898 
L 535.406528 186.761056 
L 547.433292 190.068687 
L 559.337231 193.795523 
L 571.160629 197.771201 
" style="fill:none;stroke:#008000;stroke-linecap:square;stroke-width:3;"/>
   </g>
   <g id="line2d_101">
    <path clip-path="url(#pfa0ff2e453)" d="M 571.160629 197.771201 
L 582.956054 201.829357 
L 594.779453 205.805036 
L 606.683392 209.531872 
L 618.710155 212.839502 
L 630.884474 215.55166 
" style="fill:none;stroke:#008000;stroke-linecap:square;stroke-width:3;"/>
   </g>
   <g id="line2d_102">
    <path clip-path="url(#pfa0ff2e453)" d="M 630.884474 215.55166 
L 643.20569 217.485474 
L 655.632777 218.543543 
L 668.10357 218.720574 
L 680.555684 218.015682 
L 692.926828 216.432392 
" style="fill:none;stroke:#008000;stroke-linecap:square;stroke-width:3;"/>
   </g>
   <g id="line2d_103">
    <path clip-path="url(#pfa0ff2e453)" d="M 692.926828 216.432392 
L 705.155116 213.978625 
L 717.179378 210.666655 
L 728.939463 206.513051 
L 740.376541 201.538591 
L 751.4334 195.768159 
" style="fill:none;stroke:#008000;stroke-linecap:square;stroke-width:3;"/>
   </g>
   <g id="line2d_104">
    <path clip-path="url(#pfa0ff2e453)" d="M 751.4334 195.768159 
L 762.054728 189.230621 
L 772.240251 182.031666 
L 782.059913 174.340263 
L 791.604533 166.309491 
L 800.978847 158.080213 
" style="fill:none;stroke:#008000;stroke-linecap:square;stroke-width:3;"/>
   </g>
   <g id="line2d_105">
    <path clip-path="url(#pfa0ff2e453)" d="M 79.425 144.875954 
" style="fill:none;stroke:#ffd700;stroke-linecap:square;stroke-width:1.5;"/>
    <defs>
     <path d="M 0 4 
C 1.060812 4 2.078319 3.578535 2.828427 2.828427 
C 3.578535 2.078319 4 1.060812 4 0 
C 4 -1.060812 3.578535 -2.078319 2.828427 -2.828427 
C 2.078319 -3.578535 1.060812 -4 0 -4 
C -1.060812 -4 -2.078319 -3.578535 -2.828427 -2.828427 
C -3.578535 -2.078319 -4 -1.060812 -4 0 
C -4 1.060812 -3.578535 2.078319 -2.828427 2.828427 
C -2.078319 3.578535 -1.060812 4 0 4 
z
" id="mc252120da0" style="stroke:#ffd700;"/>
    </defs>
    <g clip-path="url(#pfa0ff2e453)">
     <use style="fill:#ffd700;stroke:#ffd700;" x="79.425" xlink:href="#mc252120da0" y="144.875954"/>
    </g>
   </g>
   <g id="line2d_106">
    <path clip-path="url(#pfa0ff2e453)" d="M 141.795 143.628554 
" style="fill:none;stroke:#ffd700;stroke-linecap:square;stroke-width:1.5;"/>
    <g clip-path="url(#pfa0ff2e453)">
     <use style="fill:#ffd700;stroke:#ffd700;" x="141.795" xlink:href="#mc252120da0" y="143.628554"/>
    </g>
   </g>
   <g id="line2d_107">
    <path clip-path="url(#pfa0ff2e453)" d="M 141.632085 141.014071 
" style="fill:none;stroke:#ffd700;stroke-linecap:square;stroke-width:1.5;"/>
    <g clip-path="url(#pfa0ff2e453)">
     <use style="fill:#ffd700;stroke:#ffd700;" x="141.632085" xlink:href="#mc252120da0" y="141.014071"/>
    </g>
   </g>
   <g id="line2d_108">
    <path clip-path="url(#pfa0ff2e453)" d="M 141.736752 146.24746 
" style="fill:none;stroke:#ffd700;stroke-linecap:square;stroke-width:1.5;"/>
    <g clip-path="url(#pfa0ff2e453)">
     <use style="fill:#ffd700;stroke:#ffd700;" x="141.736752" xlink:href="#mc252120da0" y="146.24746"/>
    </g>
   </g>
   <g id="line2d_109">
    <path clip-path="url(#pfa0ff2e453)" d="M 201.986388 161.903576 
" style="fill:none;stroke:#ffd700;stroke-linecap:square;stroke-width:1.5;"/>
    <g clip-path="url(#pfa0ff2e453)">
     <use style="fill:#ffd700;stroke:#ffd700;" x="201.986388" xlink:href="#mc252120da0" y="161.903576"/>
    </g>
   </g>
   <g id="line2d_110">
    <path clip-path="url(#pfa0ff2e453)" d="M 201.065793 164.415961 
" style="fill:none;stroke:#ffd700;stroke-linecap:square;stroke-width:1.5;"/>
    <g clip-path="url(#pfa0ff2e453)">
     <use style="fill:#ffd700;stroke:#ffd700;" x="201.065793" xlink:href="#mc252120da0" y="164.415961"/>
    </g>
   </g>
   <g id="line2d_111">
    <path clip-path="url(#pfa0ff2e453)" d="M 260.963511 182.194359 
" style="fill:none;stroke:#ffd700;stroke-linecap:square;stroke-width:1.5;"/>
    <g clip-path="url(#pfa0ff2e453)">
     <use style="fill:#ffd700;stroke:#ffd700;" x="260.963511" xlink:href="#mc252120da0" y="182.194359"/>
    </g>
   </g>
   <g id="line2d_112">
    <path clip-path="url(#pfa0ff2e453)" d="M 261.710232 179.684035 
" style="fill:none;stroke:#ffd700;stroke-linecap:square;stroke-width:1.5;"/>
    <g clip-path="url(#pfa0ff2e453)">
     <use style="fill:#ffd700;stroke:#ffd700;" x="261.710232" xlink:href="#mc252120da0" y="179.684035"/>
    </g>
   </g>
   <g id="line2d_113">
    <path clip-path="url(#pfa0ff2e453)" d="M 260.007658 184.632732 
" style="fill:none;stroke:#ffd700;stroke-linecap:square;stroke-width:1.5;"/>
    <g clip-path="url(#pfa0ff2e453)">
     <use style="fill:#ffd700;stroke:#ffd700;" x="260.007658" xlink:href="#mc252120da0" y="184.632732"/>
    </g>
   </g>
   <g id="line2d_114">
    <path clip-path="url(#pfa0ff2e453)" d="M 323.859241 183.238378 
" style="fill:none;stroke:#ffd700;stroke-linecap:square;stroke-width:1.5;"/>
    <g clip-path="url(#pfa0ff2e453)">
     <use style="fill:#ffd700;stroke:#ffd700;" x="323.859241" xlink:href="#mc252120da0" y="183.238378"/>
    </g>
   </g>
   <g id="line2d_115">
    <path clip-path="url(#pfa0ff2e453)" d="M 323.752587 180.564767 
" style="fill:none;stroke:#ffd700;stroke-linecap:square;stroke-width:1.5;"/>
    <g clip-path="url(#pfa0ff2e453)">
     <use style="fill:#ffd700;stroke:#ffd700;" x="323.752587" xlink:href="#mc252120da0" y="180.564767"/>
    </g>
   </g>
   <g id="line2d_116">
    <path clip-path="url(#pfa0ff2e453)" d="M 319.940634 202.485142 
" style="fill:none;stroke:#ffd700;stroke-linecap:square;stroke-width:1.5;"/>
    <g clip-path="url(#pfa0ff2e453)">
     <use style="fill:#ffd700;stroke:#ffd700;" x="319.940634" xlink:href="#mc252120da0" y="202.485142"/>
    </g>
   </g>
   <g id="line2d_117">
    <path clip-path="url(#pfa0ff2e453)" d="M 320.687355 199.974818 
" style="fill:none;stroke:#ffd700;stroke-linecap:square;stroke-width:1.5;"/>
    <g clip-path="url(#pfa0ff2e453)">
     <use style="fill:#ffd700;stroke:#ffd700;" x="320.687355" xlink:href="#mc252120da0" y="199.974818"/>
    </g>
   </g>
   <g id="line2d_118">
    <path clip-path="url(#pfa0ff2e453)" d="M 318.984781 204.923514 
" style="fill:none;stroke:#ffd700;stroke-linecap:square;stroke-width:1.5;"/>
    <g clip-path="url(#pfa0ff2e453)">
     <use style="fill:#ffd700;stroke:#ffd700;" x="318.984781" xlink:href="#mc252120da0" y="204.923514"/>
    </g>
   </g>
   <g id="line2d_119">
    <path clip-path="url(#pfa0ff2e453)" d="M 311.187934 220.068759 
" style="fill:none;stroke:#ffd700;stroke-linecap:square;stroke-width:1.5;"/>
    <g clip-path="url(#pfa0ff2e453)">
     <use style="fill:#ffd700;stroke:#ffd700;" x="311.187934" xlink:href="#mc252120da0" y="220.068759"/>
    </g>
   </g>
   <g id="line2d_120">
    <path clip-path="url(#pfa0ff2e453)" d="M 309.458882 222.110805 
" style="fill:none;stroke:#ffd700;stroke-linecap:square;stroke-width:1.5;"/>
    <g clip-path="url(#pfa0ff2e453)">
     <use style="fill:#ffd700;stroke:#ffd700;" x="309.458882" xlink:href="#mc252120da0" y="222.110805"/>
    </g>
   </g>
   <g id="line2d_121">
    <path clip-path="url(#pfa0ff2e453)" d="M 252.162538 199.972328 
" style="fill:none;stroke:#ffd700;stroke-linecap:square;stroke-width:1.5;"/>
    <g clip-path="url(#pfa0ff2e453)">
     <use style="fill:#ffd700;stroke:#ffd700;" x="252.162538" xlink:href="#mc252120da0" y="199.972328"/>
    </g>
   </g>
   <g id="line2d_122">
    <path clip-path="url(#pfa0ff2e453)" d="M 250.428685 202.010299 
" style="fill:none;stroke:#ffd700;stroke-linecap:square;stroke-width:1.5;"/>
    <g clip-path="url(#pfa0ff2e453)">
     <use style="fill:#ffd700;stroke:#ffd700;" x="250.428685" xlink:href="#mc252120da0" y="202.010299"/>
    </g>
   </g>
   <g id="line2d_123">
    <path clip-path="url(#pfa0ff2e453)" d="M 204.165 142.381154 
" style="fill:none;stroke:#ffd700;stroke-linecap:square;stroke-width:1.5;"/>
    <g clip-path="url(#pfa0ff2e453)">
     <use style="fill:#ffd700;stroke:#ffd700;" x="204.165" xlink:href="#mc252120da0" y="142.381154"/>
    </g>
   </g>
   <g id="line2d_124">
    <path clip-path="url(#pfa0ff2e453)" d="M 204.002085 139.766671 
" style="fill:none;stroke:#ffd700;stroke-linecap:square;stroke-width:1.5;"/>
    <g clip-path="url(#pfa0ff2e453)">
     <use style="fill:#ffd700;stroke:#ffd700;" x="204.002085" xlink:href="#mc252120da0" y="139.766671"/>
    </g>
   </g>
   <g id="line2d_125">
    <path clip-path="url(#pfa0ff2e453)" d="M 204.106752 145.00006 
" style="fill:none;stroke:#ffd700;stroke-linecap:square;stroke-width:1.5;"/>
    <g clip-path="url(#pfa0ff2e453)">
     <use style="fill:#ffd700;stroke:#ffd700;" x="204.106752" xlink:href="#mc252120da0" y="145.00006"/>
    </g>
   </g>
   <g id="line2d_126">
    <path clip-path="url(#pfa0ff2e453)" d="M 264.356388 160.656176 
" style="fill:none;stroke:#ffd700;stroke-linecap:square;stroke-width:1.5;"/>
    <g clip-path="url(#pfa0ff2e453)">
     <use style="fill:#ffd700;stroke:#ffd700;" x="264.356388" xlink:href="#mc252120da0" y="160.656176"/>
    </g>
   </g>
   <g id="line2d_127">
    <path clip-path="url(#pfa0ff2e453)" d="M 263.435793 163.168561 
" style="fill:none;stroke:#ffd700;stroke-linecap:square;stroke-width:1.5;"/>
    <g clip-path="url(#pfa0ff2e453)">
     <use style="fill:#ffd700;stroke:#ffd700;" x="263.435793" xlink:href="#mc252120da0" y="163.168561"/>
    </g>
   </g>
   <g id="line2d_128">
    <path clip-path="url(#pfa0ff2e453)" d="M 323.333511 180.946959 
" style="fill:none;stroke:#ffd700;stroke-linecap:square;stroke-width:1.5;"/>
    <g clip-path="url(#pfa0ff2e453)">
     <use style="fill:#ffd700;stroke:#ffd700;" x="323.333511" xlink:href="#mc252120da0" y="180.946959"/>
    </g>
   </g>
   <g id="line2d_129">
    <path clip-path="url(#pfa0ff2e453)" d="M 324.080232 178.436635 
" style="fill:none;stroke:#ffd700;stroke-linecap:square;stroke-width:1.5;"/>
    <g clip-path="url(#pfa0ff2e453)">
     <use style="fill:#ffd700;stroke:#ffd700;" x="324.080232" xlink:href="#mc252120da0" y="178.436635"/>
    </g>
   </g>
   <g id="line2d_130">
    <path clip-path="url(#pfa0ff2e453)" d="M 322.377658 183.385332 
" style="fill:none;stroke:#ffd700;stroke-linecap:square;stroke-width:1.5;"/>
    <g clip-path="url(#pfa0ff2e453)">
     <use style="fill:#ffd700;stroke:#ffd700;" x="322.377658" xlink:href="#mc252120da0" y="183.385332"/>
    </g>
   </g>
   <g id="line2d_131">
    <path clip-path="url(#pfa0ff2e453)" d="M 386.229241 181.990978 
" style="fill:none;stroke:#ffd700;stroke-linecap:square;stroke-width:1.5;"/>
    <g clip-path="url(#pfa0ff2e453)">
     <use style="fill:#ffd700;stroke:#ffd700;" x="386.229241" xlink:href="#mc252120da0" y="181.990978"/>
    </g>
   </g>
   <g id="line2d_132">
    <path clip-path="url(#pfa0ff2e453)" d="M 386.122587 179.317367 
" style="fill:none;stroke:#ffd700;stroke-linecap:square;stroke-width:1.5;"/>
    <g clip-path="url(#pfa0ff2e453)">
     <use style="fill:#ffd700;stroke:#ffd700;" x="386.122587" xlink:href="#mc252120da0" y="179.317367"/>
    </g>
   </g>
   <g id="line2d_133">
    <path clip-path="url(#pfa0ff2e453)" d="M 445.655305 161.124287 
" style="fill:none;stroke:#ffd700;stroke-linecap:square;stroke-width:1.5;"/>
    <g clip-path="url(#pfa0ff2e453)">
     <use style="fill:#ffd700;stroke:#ffd700;" x="445.655305" xlink:href="#mc252120da0" y="161.124287"/>
    </g>
   </g>
   <g id="line2d_134">
    <path clip-path="url(#pfa0ff2e453)" d="M 444.629158 158.653134 
" style="fill:none;stroke:#ffd700;stroke-linecap:square;stroke-width:1.5;"/>
    <g clip-path="url(#pfa0ff2e453)">
     <use style="fill:#ffd700;stroke:#ffd700;" x="444.629158" xlink:href="#mc252120da0" y="158.653134"/>
    </g>
   </g>
   <g id="line2d_135">
    <path clip-path="url(#pfa0ff2e453)" d="M 494.174606 120.965188 
" style="fill:none;stroke:#ffd700;stroke-linecap:square;stroke-width:1.5;"/>
    <g clip-path="url(#pfa0ff2e453)">
     <use style="fill:#ffd700;stroke:#ffd700;" x="494.174606" xlink:href="#mc252120da0" y="120.965188"/>
    </g>
   </g>
   <g id="line2d_136">
    <path clip-path="url(#pfa0ff2e453)" d="M 492.356019 119.002457 
" style="fill:none;stroke:#ffd700;stroke-linecap:square;stroke-width:1.5;"/>
    <g clip-path="url(#pfa0ff2e453)">
     <use style="fill:#ffd700;stroke:#ffd700;" x="492.356019" xlink:href="#mc252120da0" y="119.002457"/>
    </g>
   </g>
   <g id="line2d_137">
    <path clip-path="url(#pfa0ff2e453)" d="M 540.758033 79.492291 
" style="fill:none;stroke:#ffd700;stroke-linecap:square;stroke-width:1.5;"/>
    <g clip-path="url(#pfa0ff2e453)">
     <use style="fill:#ffd700;stroke:#ffd700;" x="540.758033" xlink:href="#mc252120da0" y="79.492291"/>
    </g>
   </g>
   <g id="line2d_138">
    <path clip-path="url(#pfa0ff2e453)" d="M 538.935472 77.611443 
" style="fill:none;stroke:#ffd700;stroke-linecap:square;stroke-width:1.5;"/>
    <g clip-path="url(#pfa0ff2e453)">
     <use style="fill:#ffd700;stroke:#ffd700;" x="538.935472" xlink:href="#mc252120da0" y="77.611443"/>
    </g>
   </g>
   <g id="line2d_139">
    <path clip-path="url(#pfa0ff2e453)" d="M 542.41541 81.5202 
" style="fill:none;stroke:#ffd700;stroke-linecap:square;stroke-width:1.5;"/>
    <g clip-path="url(#pfa0ff2e453)">
     <use style="fill:#ffd700;stroke:#ffd700;" x="542.41541" xlink:href="#mc252120da0" y="81.5202"/>
    </g>
   </g>
   <g id="line2d_140">
    <path clip-path="url(#pfa0ff2e453)" d="M 525.779779 66.485937 
" style="fill:none;stroke:#ffd700;stroke-linecap:square;stroke-width:1.5;"/>
    <g clip-path="url(#pfa0ff2e453)">
     <use style="fill:#ffd700;stroke:#ffd700;" x="525.779779" xlink:href="#mc252120da0" y="66.485937"/>
    </g>
   </g>
   <g id="line2d_141">
    <path clip-path="url(#pfa0ff2e453)" d="M 523.393918 65.27464 
" style="fill:none;stroke:#ffd700;stroke-linecap:square;stroke-width:1.5;"/>
    <g clip-path="url(#pfa0ff2e453)">
     <use style="fill:#ffd700;stroke:#ffd700;" x="523.393918" xlink:href="#mc252120da0" y="65.27464"/>
    </g>
   </g>
   <g id="line2d_142">
    <path clip-path="url(#pfa0ff2e453)" d="M 503.720416 138.354576 
" style="fill:none;stroke:#ffd700;stroke-linecap:square;stroke-width:1.5;"/>
    <g clip-path="url(#pfa0ff2e453)">
     <use style="fill:#ffd700;stroke:#ffd700;" x="503.720416" xlink:href="#mc252120da0" y="138.354576"/>
    </g>
   </g>
   <g id="line2d_143">
    <path clip-path="url(#pfa0ff2e453)" d="M 502.662178 135.958862 
" style="fill:none;stroke:#ffd700;stroke-linecap:square;stroke-width:1.5;"/>
    <g clip-path="url(#pfa0ff2e453)">
     <use style="fill:#ffd700;stroke:#ffd700;" x="502.662178" xlink:href="#mc252120da0" y="135.958862"/>
    </g>
   </g>
   <g id="line2d_144">
    <path clip-path="url(#pfa0ff2e453)" d="M 504.572756 140.831032 
" style="fill:none;stroke:#ffd700;stroke-linecap:square;stroke-width:1.5;"/>
    <g clip-path="url(#pfa0ff2e453)">
     <use style="fill:#ffd700;stroke:#ffd700;" x="504.572756" xlink:href="#mc252120da0" y="140.831032"/>
    </g>
   </g>
   <g id="line2d_145">
    <path clip-path="url(#pfa0ff2e453)" d="M 566.515539 134.648453 
" style="fill:none;stroke:#ffd700;stroke-linecap:square;stroke-width:1.5;"/>
    <g clip-path="url(#pfa0ff2e453)">
     <use style="fill:#ffd700;stroke:#ffd700;" x="566.515539" xlink:href="#mc252120da0" y="134.648453"/>
    </g>
   </g>
   <g id="line2d_146">
    <path clip-path="url(#pfa0ff2e453)" d="M 566.522182 137.324183 
" style="fill:none;stroke:#ffd700;stroke-linecap:square;stroke-width:1.5;"/>
    <g clip-path="url(#pfa0ff2e453)">
     <use style="fill:#ffd700;stroke:#ffd700;" x="566.522182" xlink:href="#mc252120da0" y="137.324183"/>
    </g>
   </g>
   <g id="line2d_147">
    <path clip-path="url(#pfa0ff2e453)" d="M 561.785528 115.584866 
" style="fill:none;stroke:#ffd700;stroke-linecap:square;stroke-width:1.5;"/>
    <g clip-path="url(#pfa0ff2e453)">
     <use style="fill:#ffd700;stroke:#ffd700;" x="561.785528" xlink:href="#mc252120da0" y="115.584866"/>
    </g>
   </g>
   <g id="line2d_148">
    <path clip-path="url(#pfa0ff2e453)" d="M 560.72729 113.189151 
" style="fill:none;stroke:#ffd700;stroke-linecap:square;stroke-width:1.5;"/>
    <g clip-path="url(#pfa0ff2e453)">
     <use style="fill:#ffd700;stroke:#ffd700;" x="560.72729" xlink:href="#mc252120da0" y="113.189151"/>
    </g>
   </g>
   <g id="line2d_149">
    <path clip-path="url(#pfa0ff2e453)" d="M 562.637867 118.061322 
" style="fill:none;stroke:#ffd700;stroke-linecap:square;stroke-width:1.5;"/>
    <g clip-path="url(#pfa0ff2e453)">
     <use style="fill:#ffd700;stroke:#ffd700;" x="562.637867" xlink:href="#mc252120da0" y="118.061322"/>
    </g>
   </g>
   <g id="line2d_150">
    <path clip-path="url(#pfa0ff2e453)" d="M 552.296176 98.387611 
" style="fill:none;stroke:#ffd700;stroke-linecap:square;stroke-width:1.5;"/>
    <g clip-path="url(#pfa0ff2e453)">
     <use style="fill:#ffd700;stroke:#ffd700;" x="552.296176" xlink:href="#mc252120da0" y="98.387611"/>
    </g>
   </g>
   <g id="line2d_151">
    <path clip-path="url(#pfa0ff2e453)" d="M 550.482213 96.420605 
" style="fill:none;stroke:#ffd700;stroke-linecap:square;stroke-width:1.5;"/>
    <g clip-path="url(#pfa0ff2e453)">
     <use style="fill:#ffd700;stroke:#ffd700;" x="550.482213" xlink:href="#mc252120da0" y="96.420605"/>
    </g>
   </g>
   <g id="line2d_152">
    <path clip-path="url(#pfa0ff2e453)" d="M 598.977069 57.024449 
" style="fill:none;stroke:#ffd700;stroke-linecap:square;stroke-width:1.5;"/>
    <g clip-path="url(#pfa0ff2e453)">
     <use style="fill:#ffd700;stroke:#ffd700;" x="598.977069" xlink:href="#mc252120da0" y="57.024449"/>
    </g>
   </g>
   <g id="line2d_153">
    <path clip-path="url(#pfa0ff2e453)" d="M 597.158939 55.139318 
" style="fill:none;stroke:#ffd700;stroke-linecap:square;stroke-width:1.5;"/>
    <g clip-path="url(#pfa0ff2e453)">
     <use style="fill:#ffd700;stroke:#ffd700;" x="597.158939" xlink:href="#mc252120da0" y="55.139318"/>
    </g>
   </g>
   <g id="line2d_154">
    <path clip-path="url(#pfa0ff2e453)" d="M 600.629669 59.056253 
" style="fill:none;stroke:#ffd700;stroke-linecap:square;stroke-width:1.5;"/>
    <g clip-path="url(#pfa0ff2e453)">
     <use style="fill:#ffd700;stroke:#ffd700;" x="600.629669" xlink:href="#mc252120da0" y="59.056253"/>
    </g>
   </g>
   <g id="line2d_155">
    <path clip-path="url(#pfa0ff2e453)" d="M 584.029463 43.982884 
" style="fill:none;stroke:#ffd700;stroke-linecap:square;stroke-width:1.5;"/>
    <g clip-path="url(#pfa0ff2e453)">
     <use style="fill:#ffd700;stroke:#ffd700;" x="584.029463" xlink:href="#mc252120da0" y="43.982884"/>
    </g>
   </g>
   <g id="line2d_156">
    <path clip-path="url(#pfa0ff2e453)" d="M 581.646459 42.765977 
" style="fill:none;stroke:#ffd700;stroke-linecap:square;stroke-width:1.5;"/>
    <g clip-path="url(#pfa0ff2e453)">
     <use style="fill:#ffd700;stroke:#ffd700;" x="581.646459" xlink:href="#mc252120da0" y="42.765977"/>
    </g>
   </g>
   <g id="line2d_157">
    <path clip-path="url(#pfa0ff2e453)" d="M 598.381961 54.264415 
" style="fill:none;stroke:#ffd700;stroke-linecap:square;stroke-width:1.5;"/>
    <g clip-path="url(#pfa0ff2e453)">
     <use style="fill:#ffd700;stroke:#ffd700;" x="598.381961" xlink:href="#mc252120da0" y="54.264415"/>
    </g>
   </g>
   <g id="line2d_158">
    <path clip-path="url(#pfa0ff2e453)" d="M 599.315021 56.772197 
" style="fill:none;stroke:#ffd700;stroke-linecap:square;stroke-width:1.5;"/>
    <g clip-path="url(#pfa0ff2e453)">
     <use style="fill:#ffd700;stroke:#ffd700;" x="599.315021" xlink:href="#mc252120da0" y="56.772197"/>
    </g>
   </g>
   <g id="line2d_159">
    <path clip-path="url(#pfa0ff2e453)" d="M 587.34146 38.019393 
" style="fill:none;stroke:#ffd700;stroke-linecap:square;stroke-width:1.5;"/>
    <g clip-path="url(#pfa0ff2e453)">
     <use style="fill:#ffd700;stroke:#ffd700;" x="587.34146" xlink:href="#mc252120da0" y="38.019393"/>
    </g>
   </g>
   <g id="line2d_160">
    <path clip-path="url(#pfa0ff2e453)" d="M 585.518899 36.138546 
" style="fill:none;stroke:#ffd700;stroke-linecap:square;stroke-width:1.5;"/>
    <g clip-path="url(#pfa0ff2e453)">
     <use style="fill:#ffd700;stroke:#ffd700;" x="585.518899" xlink:href="#mc252120da0" y="36.138546"/>
    </g>
   </g>
   <g id="line2d_161">
    <path clip-path="url(#pfa0ff2e453)" d="M 588.998837 40.047303 
" style="fill:none;stroke:#ffd700;stroke-linecap:square;stroke-width:1.5;"/>
    <g clip-path="url(#pfa0ff2e453)">
     <use style="fill:#ffd700;stroke:#ffd700;" x="588.998837" xlink:href="#mc252120da0" y="40.047303"/>
    </g>
   </g>
   <g id="line2d_162">
    <path clip-path="url(#pfa0ff2e453)" d="M 572.482722 25.173722 
" style="fill:none;stroke:#ffd700;stroke-linecap:square;stroke-width:1.5;"/>
    <g clip-path="url(#pfa0ff2e453)">
     <use style="fill:#ffd700;stroke:#ffd700;" x="572.482722" xlink:href="#mc252120da0" y="25.173722"/>
    </g>
   </g>
   <g id="line2d_163">
    <path clip-path="url(#pfa0ff2e453)" d="M 570.099718 23.956815 
" style="fill:none;stroke:#ffd700;stroke-linecap:square;stroke-width:1.5;"/>
    <g clip-path="url(#pfa0ff2e453)">
     <use style="fill:#ffd700;stroke:#ffd700;" x="570.099718" xlink:href="#mc252120da0" y="23.956815"/>
    </g>
   </g>
   <g id="line2d_164">
    <path clip-path="url(#pfa0ff2e453)" d="M 555.113845 11.444775 
" style="fill:none;stroke:#ffd700;stroke-linecap:square;stroke-width:1.5;"/>
    <g clip-path="url(#pfa0ff2e453)">
     <use style="fill:#ffd700;stroke:#ffd700;" x="555.113845" xlink:href="#mc252120da0" y="11.444775"/>
    </g>
   </g>
   <g id="line2d_165">
    <path clip-path="url(#pfa0ff2e453)" d="M 552.752619 10.31167 
" style="fill:none;stroke:#ffd700;stroke-linecap:square;stroke-width:1.5;"/>
    <g clip-path="url(#pfa0ff2e453)">
     <use style="fill:#ffd700;stroke:#ffd700;" x="552.752619" xlink:href="#mc252120da0" y="10.31167"/>
    </g>
   </g>
   <g id="line2d_166">
    <path clip-path="url(#pfa0ff2e453)" d="M 557.371053 12.773055 
" style="fill:none;stroke:#ffd700;stroke-linecap:square;stroke-width:1.5;"/>
    <g clip-path="url(#pfa0ff2e453)">
     <use style="fill:#ffd700;stroke:#ffd700;" x="557.371053" xlink:href="#mc252120da0" y="12.773055"/>
    </g>
   </g>
   <g id="line2d_167">
    <path clip-path="url(#pfa0ff2e453)" d="M 448.599241 180.743578 
" style="fill:none;stroke:#ffd700;stroke-linecap:square;stroke-width:1.5;"/>
    <g clip-path="url(#pfa0ff2e453)">
     <use style="fill:#ffd700;stroke:#ffd700;" x="448.599241" xlink:href="#mc252120da0" y="180.743578"/>
    </g>
   </g>
   <g id="line2d_168">
    <path clip-path="url(#pfa0ff2e453)" d="M 448.436326 178.129096 
" style="fill:none;stroke:#ffd700;stroke-linecap:square;stroke-width:1.5;"/>
    <g clip-path="url(#pfa0ff2e453)">
     <use style="fill:#ffd700;stroke:#ffd700;" x="448.436326" xlink:href="#mc252120da0" y="178.129096"/>
    </g>
   </g>
   <g id="line2d_169">
    <path clip-path="url(#pfa0ff2e453)" d="M 448.540993 183.362484 
" style="fill:none;stroke:#ffd700;stroke-linecap:square;stroke-width:1.5;"/>
    <g clip-path="url(#pfa0ff2e453)">
     <use style="fill:#ffd700;stroke:#ffd700;" x="448.540993" xlink:href="#mc252120da0" y="183.362484"/>
    </g>
   </g>
   <g id="line2d_170">
    <path clip-path="url(#pfa0ff2e453)" d="M 508.011691 160.07616 
" style="fill:none;stroke:#ffd700;stroke-linecap:square;stroke-width:1.5;"/>
    <g clip-path="url(#pfa0ff2e453)">
     <use style="fill:#ffd700;stroke:#ffd700;" x="508.011691" xlink:href="#mc252120da0" y="160.07616"/>
    </g>
   </g>
   <g id="line2d_171">
    <path clip-path="url(#pfa0ff2e453)" d="M 506.991363 157.602599 
" style="fill:none;stroke:#ffd700;stroke-linecap:square;stroke-width:1.5;"/>
    <g clip-path="url(#pfa0ff2e453)">
     <use style="fill:#ffd700;stroke:#ffd700;" x="506.991363" xlink:href="#mc252120da0" y="157.602599"/>
    </g>
   </g>
   <g id="line2d_172">
    <path clip-path="url(#pfa0ff2e453)" d="M 556.62536 120.031348 
" style="fill:none;stroke:#ffd700;stroke-linecap:square;stroke-width:1.5;"/>
    <g clip-path="url(#pfa0ff2e453)">
     <use style="fill:#ffd700;stroke:#ffd700;" x="556.62536" xlink:href="#mc252120da0" y="120.031348"/>
    </g>
   </g>
   <g id="line2d_173">
    <path clip-path="url(#pfa0ff2e453)" d="M 554.811397 118.064342 
" style="fill:none;stroke:#ffd700;stroke-linecap:square;stroke-width:1.5;"/>
    <g clip-path="url(#pfa0ff2e453)">
     <use style="fill:#ffd700;stroke:#ffd700;" x="554.811397" xlink:href="#mc252120da0" y="118.064342"/>
    </g>
   </g>
   <g id="line2d_174">
    <path clip-path="url(#pfa0ff2e453)" d="M 566.130223 137.443152 
" style="fill:none;stroke:#ffd700;stroke-linecap:square;stroke-width:1.5;"/>
    <g clip-path="url(#pfa0ff2e453)">
     <use style="fill:#ffd700;stroke:#ffd700;" x="566.130223" xlink:href="#mc252120da0" y="137.443152"/>
    </g>
   </g>
   <g id="line2d_175">
    <path clip-path="url(#pfa0ff2e453)" d="M 565.077626 135.044953 
" style="fill:none;stroke:#ffd700;stroke-linecap:square;stroke-width:1.5;"/>
    <g clip-path="url(#pfa0ff2e453)">
     <use style="fill:#ffd700;stroke:#ffd700;" x="565.077626" xlink:href="#mc252120da0" y="135.044953"/>
    </g>
   </g>
   <g id="line2d_176">
    <path clip-path="url(#pfa0ff2e453)" d="M 566.976733 139.921606 
" style="fill:none;stroke:#ffd700;stroke-linecap:square;stroke-width:1.5;"/>
    <g clip-path="url(#pfa0ff2e453)">
     <use style="fill:#ffd700;stroke:#ffd700;" x="566.976733" xlink:href="#mc252120da0" y="139.921606"/>
    </g>
   </g>
   <g id="line2d_177">
    <path clip-path="url(#pfa0ff2e453)" d="M 510.969241 179.496178 
" style="fill:none;stroke:#ffd700;stroke-linecap:square;stroke-width:1.5;"/>
    <g clip-path="url(#pfa0ff2e453)">
     <use style="fill:#ffd700;stroke:#ffd700;" x="510.969241" xlink:href="#mc252120da0" y="179.496178"/>
    </g>
   </g>
   <g id="line2d_178">
    <path clip-path="url(#pfa0ff2e453)" d="M 510.806326 176.881696 
" style="fill:none;stroke:#ffd700;stroke-linecap:square;stroke-width:1.5;"/>
    <g clip-path="url(#pfa0ff2e453)">
     <use style="fill:#ffd700;stroke:#ffd700;" x="510.806326" xlink:href="#mc252120da0" y="176.881696"/>
    </g>
   </g>
   <g id="line2d_179">
    <path clip-path="url(#pfa0ff2e453)" d="M 510.910993 182.115084 
" style="fill:none;stroke:#ffd700;stroke-linecap:square;stroke-width:1.5;"/>
    <g clip-path="url(#pfa0ff2e453)">
     <use style="fill:#ffd700;stroke:#ffd700;" x="510.910993" xlink:href="#mc252120da0" y="182.115084"/>
    </g>
   </g>
   <g id="line2d_180">
    <path clip-path="url(#pfa0ff2e453)" d="M 570.381691 158.82876 
" style="fill:none;stroke:#ffd700;stroke-linecap:square;stroke-width:1.5;"/>
    <g clip-path="url(#pfa0ff2e453)">
     <use style="fill:#ffd700;stroke:#ffd700;" x="570.381691" xlink:href="#mc252120da0" y="158.82876"/>
    </g>
   </g>
   <g id="line2d_181">
    <path clip-path="url(#pfa0ff2e453)" d="M 569.361363 156.355199 
" style="fill:none;stroke:#ffd700;stroke-linecap:square;stroke-width:1.5;"/>
    <g clip-path="url(#pfa0ff2e453)">
     <use style="fill:#ffd700;stroke:#ffd700;" x="569.361363" xlink:href="#mc252120da0" y="156.355199"/>
    </g>
   </g>
   <g id="line2d_182">
    <path clip-path="url(#pfa0ff2e453)" d="M 573.339241 178.248778 
" style="fill:none;stroke:#ffd700;stroke-linecap:square;stroke-width:1.5;"/>
    <g clip-path="url(#pfa0ff2e453)">
     <use style="fill:#ffd700;stroke:#ffd700;" x="573.339241" xlink:href="#mc252120da0" y="178.248778"/>
    </g>
   </g>
   <g id="line2d_183">
    <path clip-path="url(#pfa0ff2e453)" d="M 573.176326 175.634296 
" style="fill:none;stroke:#ffd700;stroke-linecap:square;stroke-width:1.5;"/>
    <g clip-path="url(#pfa0ff2e453)">
     <use style="fill:#ffd700;stroke:#ffd700;" x="573.176326" xlink:href="#mc252120da0" y="175.634296"/>
    </g>
   </g>
   <g id="line2d_184">
    <path clip-path="url(#pfa0ff2e453)" d="M 573.280993 180.867684 
" style="fill:none;stroke:#ffd700;stroke-linecap:square;stroke-width:1.5;"/>
    <g clip-path="url(#pfa0ff2e453)">
     <use style="fill:#ffd700;stroke:#ffd700;" x="573.280993" xlink:href="#mc252120da0" y="180.867684"/>
    </g>
   </g>
   <g id="line2d_185">
    <path clip-path="url(#pfa0ff2e453)" d="M 571.160629 197.771201 
" style="fill:none;stroke:#ffd700;stroke-linecap:square;stroke-width:1.5;"/>
    <g clip-path="url(#pfa0ff2e453)">
     <use style="fill:#ffd700;stroke:#ffd700;" x="571.160629" xlink:href="#mc252120da0" y="197.771201"/>
    </g>
   </g>
   <g id="line2d_186">
    <path clip-path="url(#pfa0ff2e453)" d="M 570.240034 200.283585 
" style="fill:none;stroke:#ffd700;stroke-linecap:square;stroke-width:1.5;"/>
    <g clip-path="url(#pfa0ff2e453)">
     <use style="fill:#ffd700;stroke:#ffd700;" x="570.240034" xlink:href="#mc252120da0" y="200.283585"/>
    </g>
   </g>
   <g id="line2d_187">
    <path clip-path="url(#pfa0ff2e453)" d="M 630.137752 218.061984 
" style="fill:none;stroke:#ffd700;stroke-linecap:square;stroke-width:1.5;"/>
    <g clip-path="url(#pfa0ff2e453)">
     <use style="fill:#ffd700;stroke:#ffd700;" x="630.137752" xlink:href="#mc252120da0" y="218.061984"/>
    </g>
   </g>
   <g id="line2d_188">
    <path clip-path="url(#pfa0ff2e453)" d="M 630.884474 215.55166 
" style="fill:none;stroke:#ffd700;stroke-linecap:square;stroke-width:1.5;"/>
    <g clip-path="url(#pfa0ff2e453)">
     <use style="fill:#ffd700;stroke:#ffd700;" x="630.884474" xlink:href="#mc252120da0" y="215.55166"/>
    </g>
   </g>
   <g id="line2d_189">
    <path clip-path="url(#pfa0ff2e453)" d="M 629.181899 220.500356 
" style="fill:none;stroke:#ffd700;stroke-linecap:square;stroke-width:1.5;"/>
    <g clip-path="url(#pfa0ff2e453)">
     <use style="fill:#ffd700;stroke:#ffd700;" x="629.181899" xlink:href="#mc252120da0" y="220.500356"/>
    </g>
   </g>
   <g id="line2d_190">
    <path clip-path="url(#pfa0ff2e453)" d="M 693.033482 219.106003 
" style="fill:none;stroke:#ffd700;stroke-linecap:square;stroke-width:1.5;"/>
    <g clip-path="url(#pfa0ff2e453)">
     <use style="fill:#ffd700;stroke:#ffd700;" x="693.033482" xlink:href="#mc252120da0" y="219.106003"/>
    </g>
   </g>
   <g id="line2d_191">
    <path clip-path="url(#pfa0ff2e453)" d="M 692.926828 216.432392 
" style="fill:none;stroke:#ffd700;stroke-linecap:square;stroke-width:1.5;"/>
    <g clip-path="url(#pfa0ff2e453)">
     <use style="fill:#ffd700;stroke:#ffd700;" x="692.926828" xlink:href="#mc252120da0" y="216.432392"/>
    </g>
   </g>
   <g id="line2d_192">
    <path clip-path="url(#pfa0ff2e453)" d="M 752.459546 198.239312 
" style="fill:none;stroke:#ffd700;stroke-linecap:square;stroke-width:1.5;"/>
    <g clip-path="url(#pfa0ff2e453)">
     <use style="fill:#ffd700;stroke:#ffd700;" x="752.459546" xlink:href="#mc252120da0" y="198.239312"/>
    </g>
   </g>
   <g id="line2d_193">
    <path clip-path="url(#pfa0ff2e453)" d="M 751.4334 195.768159 
" style="fill:none;stroke:#ffd700;stroke-linecap:square;stroke-width:1.5;"/>
    <g clip-path="url(#pfa0ff2e453)">
     <use style="fill:#ffd700;stroke:#ffd700;" x="751.4334" xlink:href="#mc252120da0" y="195.768159"/>
    </g>
   </g>
   <g id="line2d_194">
    <path clip-path="url(#pfa0ff2e453)" d="M 800.978847 158.080213 
" style="fill:none;stroke:#ffd700;stroke-linecap:square;stroke-width:1.5;"/>
    <g clip-path="url(#pfa0ff2e453)">
     <use style="fill:#ffd700;stroke:#ffd700;" x="800.978847" xlink:href="#mc252120da0" y="158.080213"/>
    </g>
   </g>
   <g id="line2d_195">
    <path clip-path="url(#pfa0ff2e453)" d="M 800.978847 158.080213 
" style="fill:none;stroke:#008000;stroke-linecap:square;stroke-width:1.5;"/>
    <defs>
     <path d="M 0 4 
C 1.060812 4 2.078319 3.578535 2.828427 2.828427 
C 3.578535 2.078319 4 1.060812 4 0 
C 4 -1.060812 3.578535 -2.078319 2.828427 -2.828427 
C 2.078319 -3.578535 1.060812 -4 0 -4 
C -1.060812 -4 -2.078319 -3.578535 -2.828427 -2.828427 
C -3.578535 -2.078319 -4 -1.060812 -4 0 
C -4 1.060812 -3.578535 2.078319 -2.828427 2.828427 
C -2.078319 3.578535 -1.060812 4 0 4 
z
" id="mfe8cb28c04" style="stroke:#008000;"/>
    </defs>
    <g clip-path="url(#pfa0ff2e453)">
     <use style="fill:#008000;stroke:#008000;" x="800.978847" xlink:href="#mfe8cb28c04" y="158.080213"/>
    </g>
   </g>
   <g id="line2d_196">
    <path clip-path="url(#pfa0ff2e453)" d="M 79.425 144.875954 
" style="fill:none;stroke:#008000;stroke-linecap:square;stroke-width:1.5;"/>
    <g clip-path="url(#pfa0ff2e453)">
     <use style="fill:#008000;stroke:#008000;" x="79.425" xlink:href="#mfe8cb28c04" y="144.875954"/>
    </g>
   </g>
   <g id="line2d_197">
    <path clip-path="url(#pfa0ff2e453)" d="M 141.795 143.628554 
" style="fill:none;stroke:#008000;stroke-linecap:square;stroke-width:1.5;"/>
    <g clip-path="url(#pfa0ff2e453)">
     <use style="fill:#008000;stroke:#008000;" x="141.795" xlink:href="#mfe8cb28c04" y="143.628554"/>
    </g>
   </g>
   <g id="line2d_198">
    <path clip-path="url(#pfa0ff2e453)" d="M 204.106752 145.00006 
" style="fill:none;stroke:#008000;stroke-linecap:square;stroke-width:1.5;"/>
    <g clip-path="url(#pfa0ff2e453)">
     <use style="fill:#008000;stroke:#008000;" x="204.106752" xlink:href="#mfe8cb28c04" y="145.00006"/>
    </g>
   </g>
   <g id="line2d_199">
    <path clip-path="url(#pfa0ff2e453)" d="M 264.356388 160.656176 
" style="fill:none;stroke:#008000;stroke-linecap:square;stroke-width:1.5;"/>
    <g clip-path="url(#pfa0ff2e453)">
     <use style="fill:#008000;stroke:#008000;" x="264.356388" xlink:href="#mfe8cb28c04" y="160.656176"/>
    </g>
   </g>
   <g id="line2d_200">
    <path clip-path="url(#pfa0ff2e453)" d="M 324.080232 178.436635 
" style="fill:none;stroke:#008000;stroke-linecap:square;stroke-width:1.5;"/>
    <g clip-path="url(#pfa0ff2e453)">
     <use style="fill:#008000;stroke:#008000;" x="324.080232" xlink:href="#mfe8cb28c04" y="178.436635"/>
    </g>
   </g>
   <g id="line2d_201">
    <path clip-path="url(#pfa0ff2e453)" d="M 386.229241 181.990978 
" style="fill:none;stroke:#008000;stroke-linecap:square;stroke-width:1.5;"/>
    <g clip-path="url(#pfa0ff2e453)">
     <use style="fill:#008000;stroke:#008000;" x="386.229241" xlink:href="#mfe8cb28c04" y="181.990978"/>
    </g>
   </g>
   <g id="line2d_202">
    <path clip-path="url(#pfa0ff2e453)" d="M 448.599241 180.743578 
" style="fill:none;stroke:#008000;stroke-linecap:square;stroke-width:1.5;"/>
    <g clip-path="url(#pfa0ff2e453)">
     <use style="fill:#008000;stroke:#008000;" x="448.599241" xlink:href="#mfe8cb28c04" y="180.743578"/>
    </g>
   </g>
   <g id="line2d_203">
    <path clip-path="url(#pfa0ff2e453)" d="M 510.910993 182.115084 
" style="fill:none;stroke:#008000;stroke-linecap:square;stroke-width:1.5;"/>
    <g clip-path="url(#pfa0ff2e453)">
     <use style="fill:#008000;stroke:#008000;" x="510.910993" xlink:href="#mfe8cb28c04" y="182.115084"/>
    </g>
   </g>
   <g id="line2d_204">
    <path clip-path="url(#pfa0ff2e453)" d="M 571.160629 197.771201 
" style="fill:none;stroke:#008000;stroke-linecap:square;stroke-width:1.5;"/>
    <g clip-path="url(#pfa0ff2e453)">
     <use style="fill:#008000;stroke:#008000;" x="571.160629" xlink:href="#mfe8cb28c04" y="197.771201"/>
    </g>
   </g>
   <g id="line2d_205">
    <path clip-path="url(#pfa0ff2e453)" d="M 630.884474 215.55166 
" style="fill:none;stroke:#008000;stroke-linecap:square;stroke-width:1.5;"/>
    <g clip-path="url(#pfa0ff2e453)">
     <use style="fill:#008000;stroke:#008000;" x="630.884474" xlink:href="#mfe8cb28c04" y="215.55166"/>
    </g>
   </g>
   <g id="line2d_206">
    <path clip-path="url(#pfa0ff2e453)" d="M 692.926828 216.432392 
" style="fill:none;stroke:#008000;stroke-linecap:square;stroke-width:1.5;"/>
    <g clip-path="url(#pfa0ff2e453)">
     <use style="fill:#008000;stroke:#008000;" x="692.926828" xlink:href="#mfe8cb28c04" y="216.432392"/>
    </g>
   </g>
   <g id="line2d_207">
    <path clip-path="url(#pfa0ff2e453)" d="M 751.4334 195.768159 
" style="fill:none;stroke:#008000;stroke-linecap:square;stroke-width:1.5;"/>
    <g clip-path="url(#pfa0ff2e453)">
     <use style="fill:#008000;stroke:#008000;" x="751.4334" xlink:href="#mfe8cb28c04" y="195.768159"/>
    </g>
   </g>
   <g id="line2d_208">
    <path clip-path="url(#pfa0ff2e453)" d="M 800.978847 158.080213 
" style="fill:none;stroke:#008000;stroke-linecap:square;stroke-width:1.5;"/>
    <g clip-path="url(#pfa0ff2e453)">
     <use style="fill:#008000;stroke:#008000;" x="800.978847" xlink:href="#mfe8cb28c04" y="158.080213"/>
    </g>
   </g>
  </g>
 </g>
 <defs>
  <clipPath id="pfa0ff2e453">
   <rect height="277.2" width="906.75" x="7.2" y="7.2"/>
  </clipPath>
 </defs>
</svg>
