<?xml version="1.0" encoding="utf-8" standalone="no"?>
<!DOCTYPE svg PUBLIC "-//W3C//DTD SVG 1.1//EN"
  "http://www.w3.org/Graphics/SVG/1.1/DTD/svg11.dtd">
<!-- Created with matplotlib (https://matplotlib.org/) -->
<svg height="280.512pt" version="1.1" viewBox="0 0 371.52 280.512" width="371.52pt" xmlns="http://www.w3.org/2000/svg" xmlns:xlink="http://www.w3.org/1999/xlink">
 <metadata>
  <rdf:RDF xmlns:cc="http://creativecommons.org/ns#" xmlns:dc="http://purl.org/dc/elements/1.1/" xmlns:rdf="http://www.w3.org/1999/02/22-rdf-syntax-ns#">
   <cc:Work>
    <dc:type rdf:resource="http://purl.org/dc/dcmitype/StillImage"/>
    <dc:date>2022-04-29T12:43:23.967336</dc:date>
    <dc:format>image/svg+xml</dc:format>
    <dc:creator>
     <cc:Agent>
      <dc:title>Matplotlib v3.3.4, https://matplotlib.org/</dc:title>
     </cc:Agent>
    </dc:creator>
   </cc:Work>
  </rdf:RDF>
 </metadata>
 <defs>
  <style type="text/css">*{stroke-linecap:butt;stroke-linejoin:round;}</style>
 </defs>
 <g id="figure_1">
  <g id="patch_1">
   <path d="M 0 280.512 
L 371.52 280.512 
L 371.52 0 
L 0 0 
z
" style="fill:#ffffff;"/>
  </g>
  <g id="axes_1">
   <g id="line2d_1">
    <path clip-path="url(#p754a0ced70)" d="M 23.432727 19.296 
L 45.888093 27.677001 
L 68.072299 39.379979 
L 89.984932 53.624082 
L 111.671837 69.656918 
L 133.210836 86.751477 
" style="fill:none;stroke:#008000;stroke-linecap:square;stroke-width:3;"/>
   </g>
   <g id="line2d_2">
    <path clip-path="url(#p754a0ced70)" d="M 133.210836 86.751477 
L 154.69848 104.19793 
L 176.186123 121.644382 
L 197.673767 139.090834 
L 219.161411 156.537286 
L 240.649054 173.983739 
" style="fill:none;stroke:#008000;stroke-linecap:square;stroke-width:3;"/>
   </g>
   <g id="line2d_3">
    <path clip-path="url(#p754a0ced70)" d="M 240.649054 173.983739 
L 262.136698 191.430191 
L 283.624342 208.876643 
L 305.111985 226.323095 
L 326.599629 243.769548 
L 348.087273 261.216 
" style="fill:none;stroke:#008000;stroke-linecap:square;stroke-width:3;"/>
   </g>
   <g id="line2d_4">
    <path clip-path="url(#p754a0ced70)" d="M 133.210836 86.751477 
" style="fill:none;stroke:#008000;stroke-linecap:square;stroke-width:1.5;"/>
    <defs>
     <path d="M 0 4 
C 1.060812 4 2.078319 3.578535 2.828427 2.828427 
C 3.578535 2.078319 4 1.060812 4 0 
C 4 -1.060812 3.578535 -2.078319 2.828427 -2.828427 
C 2.078319 -3.578535 1.060812 -4 0 -4 
C -1.060812 -4 -2.078319 -3.578535 -2.828427 -2.828427 
C -3.578535 -2.078319 -4 -1.060812 -4 0 
C -4 1.060812 -3.578535 2.078319 -2.828427 2.828427 
C -2.078319 3.578535 -1.060812 4 0 4 
z
" id="m0e0d9ff454" style="stroke:#008000;"/>
    </defs>
    <g clip-path="url(#p754a0ced70)">
     <use style="fill:#008000;stroke:#008000;" x="133.210836" xlink:href="#m0e0d9ff454" y="86.751477"/>
    </g>
   </g>
   <g id="line2d_5">
    <path clip-path="url(#p754a0ced70)" d="M 240.649054 173.983739 
" style="fill:none;stroke:#008000;stroke-linecap:square;stroke-width:1.5;"/>
    <g clip-path="url(#p754a0ced70)">
     <use style="fill:#008000;stroke:#008000;" x="240.649054" xlink:href="#m0e0d9ff454" y="173.983739"/>
    </g>
   </g>
   <g id="line2d_6">
    <path clip-path="url(#p754a0ced70)" d="M 348.087273 261.216 
" style="fill:none;stroke:#008000;stroke-linecap:square;stroke-width:1.5;"/>
    <g clip-path="url(#p754a0ced70)">
     <use style="fill:#008000;stroke:#008000;" x="348.087273" xlink:href="#m0e0d9ff454" y="261.216"/>
    </g>
   </g>
  </g>
 </g>
 <defs>
  <clipPath id="p754a0ced70">
   <rect height="266.112" width="357.12" x="7.2" y="7.2"/>
  </clipPath>
 </defs>
</svg>
