<?xml version="1.0" encoding="utf-8" standalone="no"?>
<!DOCTYPE svg PUBLIC "-//W3C//DTD SVG 1.1//EN"
  "http://www.w3.org/Graphics/SVG/1.1/DTD/svg11.dtd">
<!-- Created with matplotlib (https://matplotlib.org/) -->
<svg height="291.6pt" version="1.1" viewBox="0 0 921.15 291.6" width="921.15pt" xmlns="http://www.w3.org/2000/svg" xmlns:xlink="http://www.w3.org/1999/xlink">
 <metadata>
  <rdf:RDF xmlns:cc="http://creativecommons.org/ns#" xmlns:dc="http://purl.org/dc/elements/1.1/" xmlns:rdf="http://www.w3.org/1999/02/22-rdf-syntax-ns#">
   <cc:Work>
    <dc:type rdf:resource="http://purl.org/dc/dcmitype/StillImage"/>
    <dc:date>2022-04-30T21:28:12.554761</dc:date>
    <dc:format>image/svg+xml</dc:format>
    <dc:creator>
     <cc:Agent>
      <dc:title>Matplotlib v3.3.4, https://matplotlib.org/</dc:title>
     </cc:Agent>
    </dc:creator>
   </cc:Work>
  </rdf:RDF>
 </metadata>
 <defs>
  <style type="text/css">*{stroke-linecap:butt;stroke-linejoin:round;}</style>
 </defs>
 <g id="figure_1">
  <g id="patch_1">
   <path d="M 0 291.6 
L 921.15 291.6 
L 921.15 0 
L 0 0 
z
" style="fill:#ffffff;"/>
  </g>
  <g id="axes_1">
   <g id="PolyCollection_1">
    <path clip-path="url(#p454962a057)" d="M -613.575 284.4 
L -599.715 284.4 
L -585.855 284.4 
L -571.995 284.4 
L -558.135 284.4 
L -544.275 284.4 
L -530.415 284.4 
L -516.555 284.4 
L -502.695 284.4 
L -488.835 284.4 
L -474.975 284.4 
L -461.115 284.4 
L -447.255 284.4 
L -433.395 284.4 
L -419.535 284.4 
L -405.675 284.4 
L -391.815 284.4 
L -377.955 284.4 
L -364.095 284.4 
L -350.235 284.4 
L -336.375 284.4 
L -322.515 284.4 
L -308.655 284.4 
L -294.795 284.4 
L -280.935 284.4 
L -267.075 284.4 
L -253.215 284.4 
L -239.355 284.4 
L -225.495 284.4 
L -211.635 284.4 
L -197.775 284.4 
L -183.915 284.4 
L -170.055 284.4 
L -156.195 284.4 
L -142.335 284.4 
L -128.475 284.4 
L -114.615 284.4 
L -100.755 284.4 
L -86.895 284.4 
L -73.035 284.4 
L -59.175 284.4 
L -45.315 284.4 
L -31.455 284.4 
L -17.595 284.4 
L -3.735 284.4 
L 10.125 284.4 
L 23.985 284.4 
L 37.845 284.4 
L 51.705 284.4 
L 65.565 284.4 
L 79.425 284.4 
L 93.285 284.4 
L 107.145 284.4 
L 121.005 284.4 
L 134.865 284.4 
L 148.725 284.4 
L 162.585 284.4 
L 176.445 284.4 
L 190.305 284.4 
L 204.165 284.4 
L 218.025 284.4 
L 231.885 284.4 
L 245.745 284.4 
L 259.605 284.4 
L 273.465 284.4 
L 287.325 284.4 
L 301.185 284.4 
L 315.045 284.4 
L 328.905 284.4 
L 342.765 284.4 
L 356.625 284.4 
L 370.485 284.4 
L 384.345 284.4 
L 398.205 284.4 
L 412.065 284.4 
L 425.925 284.4 
L 439.785 284.4 
L 453.645 284.4 
L 467.505 284.4 
L 481.365 284.4 
L 495.225 284.4 
L 509.085 284.4 
L 522.945 284.4 
L 536.805 284.4 
L 550.665 284.4 
L 564.525 284.4 
L 578.385 284.4 
L 592.245 284.4 
L 606.105 284.4 
L 619.965 284.4 
L 633.825 284.4 
L 647.685 284.4 
L 661.545 284.4 
L 675.405 284.4 
L 689.265 284.4 
L 703.125 284.4 
L 716.985 284.4 
L 730.845 284.4 
L 744.705 284.4 
L 758.565 284.4 
L 772.425 284.4 
L 786.285 284.4 
L 800.145 284.4 
L 814.005 284.4 
L 827.865 284.4 
L 841.725 284.4 
L 855.585 284.4 
L 869.445 284.4 
L 883.305 284.4 
L 897.165 284.4 
L 911.025 284.4 
L 924.885 284.4 
L 938.745 284.4 
L 952.605 284.4 
L 966.465 284.4 
L 980.325 284.4 
L 994.185 284.4 
L 1008.045 284.4 
L 1021.905 284.4 
L 1035.765 284.4 
L 1049.625 284.4 
L 1063.485 284.4 
L 1077.345 284.4 
L 1091.205 284.4 
L 1105.065 284.4 
L 1118.925 284.4 
L 1132.785 284.4 
L 1146.645 284.4 
L 1160.505 284.4 
L 1174.365 284.4 
L 1188.225 284.4 
L 1202.085 284.4 
L 1215.945 284.4 
L 1229.805 284.4 
L 1243.665 284.4 
L 1257.525 284.4 
L 1271.385 284.4 
L 1285.245 284.4 
L 1299.105 284.4 
L 1312.965 284.4 
L 1326.825 284.4 
L 1340.685 284.4 
L 1354.545 284.4 
L 1368.405 284.4 
L 1382.265 284.4 
L 1396.125 284.4 
L 1409.985 284.4 
L 1423.845 284.4 
L 1437.705 284.4 
L 1451.565 284.4 
L 1465.425 284.4 
L 1479.285 284.4 
L 1493.145 284.4 
L 1507.005 284.4 
L 1520.865 284.4 
L 1534.725 284.4 
L 1548.585 284.4 
L 1562.445 284.4 
L 1576.305 284.4 
L 1590.165 284.4 
L 1604.025 284.4 
L 1617.885 284.4 
L 1631.745 284.4 
L 1645.605 284.4 
L 1659.465 284.4 
L 1673.325 284.4 
L 1687.185 284.4 
L 1701.045 284.4 
L 1714.905 284.4 
L 1728.765 284.4 
L 1742.625 284.4 
L 1756.485 284.4 
L 1770.345 284.4 
L 1784.205 284.4 
L 1798.065 284.4 
L 1811.925 284.4 
L 1825.785 284.4 
L 1839.645 284.4 
L 1853.505 284.4 
L 1867.365 284.4 
L 1881.225 284.4 
L 1895.085 284.4 
L 1908.945 284.4 
L 1922.805 284.4 
L 1936.665 284.4 
L 1950.525 284.4 
L 1964.385 284.4 
L 1978.245 284.4 
L 1992.105 284.4 
L 2005.965 284.4 
L 2019.825 284.4 
L 2033.685 284.4 
L 2047.545 284.4 
L 2061.405 284.4 
L 2075.265 284.4 
L 2089.125 284.4 
L 2102.985 284.4 
L 2116.845 284.4 
L 2130.705 284.4 
L 2144.565 284.4 
L 2158.425 284.4 
L 2172.285 284.4 
L 2186.145 284.4 
L 2200.005 284.4 
L 2213.865 284.4 
L 2227.725 284.4 
L 2241.585 284.4 
L 2255.445 284.4 
L 2269.305 284.4 
L 2283.165 284.4 
L 2283.165 145.8 
L 2269.305 145.8 
L 2255.445 145.8 
L 2241.585 145.8 
L 2227.725 145.8 
L 2213.865 145.8 
L 2200.005 145.8 
L 2186.145 145.8 
L 2172.285 145.8 
L 2158.425 145.8 
L 2144.565 145.8 
L 2130.705 145.8 
L 2116.845 145.8 
L 2102.985 145.8 
L 2089.125 145.8 
L 2075.265 145.8 
L 2061.405 145.8 
L 2047.545 145.8 
L 2033.685 145.8 
L 2019.825 145.8 
L 2005.965 145.8 
L 1992.105 145.8 
L 1978.245 145.8 
L 1964.385 145.8 
L 1950.525 145.8 
L 1936.665 145.8 
L 1922.805 145.8 
L 1908.945 145.8 
L 1895.085 145.8 
L 1881.225 145.8 
L 1867.365 145.8 
L 1853.505 145.8 
L 1839.645 145.8 
L 1825.785 145.8 
L 1811.925 145.8 
L 1798.065 145.8 
L 1784.205 145.8 
L 1770.345 145.8 
L 1756.485 145.8 
L 1742.625 145.8 
L 1728.765 145.8 
L 1714.905 145.8 
L 1701.045 145.8 
L 1687.185 145.8 
L 1673.325 145.8 
L 1659.465 145.8 
L 1645.605 145.8 
L 1631.745 145.8 
L 1617.885 145.8 
L 1604.025 145.8 
L 1590.165 145.8 
L 1576.305 145.8 
L 1562.445 145.8 
L 1548.585 145.8 
L 1534.725 145.8 
L 1520.865 145.8 
L 1507.005 145.8 
L 1493.145 145.8 
L 1479.285 145.8 
L 1465.425 145.8 
L 1451.565 145.8 
L 1437.705 145.8 
L 1423.845 145.8 
L 1409.985 145.8 
L 1396.125 145.8 
L 1382.265 145.8 
L 1368.405 145.8 
L 1354.545 145.8 
L 1340.685 145.8 
L 1326.825 145.8 
L 1312.965 145.8 
L 1299.105 145.8 
L 1285.245 145.8 
L 1271.385 145.8 
L 1257.525 145.8 
L 1243.665 145.8 
L 1229.805 145.8 
L 1215.945 145.8 
L 1202.085 145.8 
L 1188.225 145.8 
L 1174.365 145.8 
L 1160.505 145.8 
L 1146.645 145.8 
L 1132.785 145.8 
L 1118.925 145.8 
L 1105.065 145.8 
L 1091.205 145.8 
L 1077.345 145.8 
L 1063.485 145.8 
L 1049.625 145.8 
L 1035.765 145.8 
L 1021.905 145.8 
L 1008.045 145.8 
L 994.185 145.8 
L 980.325 145.8 
L 966.465 145.8 
L 952.605 145.8 
L 938.745 145.8 
L 924.885 145.8 
L 911.025 145.8 
L 897.165 145.8 
L 883.305 145.8 
L 869.445 145.8 
L 855.585 145.8 
L 841.725 145.8 
L 827.865 145.8 
L 814.005 145.8 
L 800.145 145.8 
L 786.285 145.8 
L 772.425 145.8 
L 758.565 145.8 
L 744.705 145.8 
L 730.845 145.8 
L 716.985 145.8 
L 703.125 145.8 
L 689.265 145.8 
L 675.405 145.8 
L 661.545 145.8 
L 647.685 145.8 
L 633.825 145.8 
L 619.965 145.8 
L 606.105 145.8 
L 592.245 145.8 
L 578.385 145.8 
L 564.525 145.8 
L 550.665 145.8 
L 536.805 145.8 
L 522.945 145.8 
L 509.085 145.8 
L 495.225 145.8 
L 481.365 145.8 
L 467.505 145.8 
L 453.645 145.8 
L 439.785 145.8 
L 425.925 145.8 
L 412.065 145.8 
L 398.205 145.8 
L 384.345 145.8 
L 370.485 145.8 
L 356.625 145.8 
L 342.765 145.8 
L 328.905 145.8 
L 315.045 145.8 
L 301.185 145.8 
L 287.325 145.8 
L 273.465 145.8 
L 259.605 145.8 
L 245.745 145.8 
L 231.885 145.8 
L 218.025 145.8 
L 204.165 145.8 
L 190.305 145.8 
L 176.445 145.8 
L 162.585 145.8 
L 148.725 145.8 
L 134.865 145.8 
L 121.005 145.8 
L 107.145 145.8 
L 93.285 145.8 
L 79.425 145.8 
L 65.565 145.8 
L 51.705 145.8 
L 37.845 145.8 
L 23.985 145.8 
L 10.125 145.8 
L -3.735 145.8 
L -17.595 145.8 
L -31.455 145.8 
L -45.315 145.8 
L -59.175 145.8 
L -73.035 145.8 
L -86.895 145.8 
L -100.755 145.8 
L -114.615 145.8 
L -128.475 145.8 
L -142.335 145.8 
L -156.195 145.8 
L -170.055 145.8 
L -183.915 145.8 
L -197.775 145.8 
L -211.635 145.8 
L -225.495 145.8 
L -239.355 145.8 
L -253.215 145.8 
L -267.075 145.8 
L -280.935 145.8 
L -294.795 145.8 
L -308.655 145.8 
L -322.515 145.8 
L -336.375 145.8 
L -350.235 145.8 
L -364.095 145.8 
L -377.955 145.8 
L -391.815 145.8 
L -405.675 145.8 
L -419.535 145.8 
L -433.395 145.8 
L -447.255 145.8 
L -461.115 145.8 
L -474.975 145.8 
L -488.835 145.8 
L -502.695 145.8 
L -516.555 145.8 
L -530.415 145.8 
L -544.275 145.8 
L -558.135 145.8 
L -571.995 145.8 
L -585.855 145.8 
L -599.715 145.8 
L -613.575 145.8 
z
" style="fill:#c7c7c7;"/>
    <path clip-path="url(#p454962a057)" d="M -613.575 145.8 
L -599.715 145.8 
L -585.855 145.8 
L -571.995 145.8 
L -558.135 145.8 
L -544.275 145.8 
L -530.415 145.8 
L -516.555 145.8 
L -502.695 145.8 
L -488.835 145.8 
L -474.975 145.8 
L -461.115 145.8 
L -447.255 145.8 
L -433.395 145.8 
L -419.535 145.8 
L -405.675 145.8 
L -391.815 145.8 
L -377.955 145.8 
L -364.095 145.8 
L -350.235 145.8 
L -336.375 145.8 
L -322.515 145.8 
L -308.655 145.8 
L -294.795 145.8 
L -280.935 145.8 
L -267.075 145.8 
L -253.215 145.8 
L -239.355 145.8 
L -225.495 145.8 
L -211.635 145.8 
L -197.775 145.8 
L -183.915 145.8 
L -170.055 145.8 
L -156.195 145.8 
L -142.335 145.8 
L -128.475 145.8 
L -114.615 145.8 
L -100.755 145.8 
L -86.895 145.8 
L -73.035 145.8 
L -59.175 145.8 
L -45.315 145.8 
L -31.455 145.8 
L -17.595 145.8 
L -3.735 145.8 
L 10.125 145.8 
L 23.985 145.8 
L 37.845 145.8 
L 51.705 145.8 
L 65.565 145.8 
L 79.425 145.8 
L 93.285 145.8 
L 107.145 145.8 
L 121.005 145.8 
L 134.865 145.8 
L 148.725 145.8 
L 162.585 145.8 
L 176.445 145.8 
L 190.305 145.8 
L 204.165 145.8 
L 218.025 145.8 
L 231.885 145.8 
L 245.745 145.8 
L 259.605 145.8 
L 273.465 145.8 
L 287.325 145.8 
L 301.185 145.8 
L 315.045 145.8 
L 328.905 145.8 
L 342.765 145.8 
L 356.625 145.8 
L 370.485 145.8 
L 384.345 145.8 
L 398.205 145.8 
L 412.065 145.8 
L 425.925 145.8 
L 439.785 145.8 
L 453.645 145.8 
L 467.505 145.8 
L 481.365 145.8 
L 495.225 145.8 
L 509.085 145.8 
L 522.945 145.8 
L 536.805 145.8 
L 550.665 145.8 
L 564.525 145.8 
L 578.385 145.8 
L 592.245 145.8 
L 606.105 145.8 
L 619.965 145.8 
L 633.825 145.8 
L 647.685 145.8 
L 661.545 145.8 
L 675.405 145.8 
L 689.265 145.8 
L 703.125 145.8 
L 716.985 145.8 
L 730.845 145.8 
L 744.705 145.8 
L 758.565 145.8 
L 772.425 145.8 
L 786.285 145.8 
L 800.145 145.8 
L 814.005 145.8 
L 827.865 145.8 
L 841.725 145.8 
L 855.585 145.8 
L 869.445 145.8 
L 883.305 145.8 
L 897.165 145.8 
L 911.025 145.8 
L 924.885 145.8 
L 938.745 145.8 
L 952.605 145.8 
L 966.465 145.8 
L 980.325 145.8 
L 994.185 145.8 
L 1008.045 145.8 
L 1021.905 145.8 
L 1035.765 145.8 
L 1049.625 145.8 
L 1063.485 145.8 
L 1077.345 145.8 
L 1091.205 145.8 
L 1105.065 145.8 
L 1118.925 145.8 
L 1132.785 145.8 
L 1146.645 145.8 
L 1160.505 145.8 
L 1174.365 145.8 
L 1188.225 145.8 
L 1202.085 145.8 
L 1215.945 145.8 
L 1229.805 145.8 
L 1243.665 145.8 
L 1257.525 145.8 
L 1271.385 145.8 
L 1285.245 145.8 
L 1299.105 145.8 
L 1312.965 145.8 
L 1326.825 145.8 
L 1340.685 145.8 
L 1354.545 145.8 
L 1368.405 145.8 
L 1382.265 145.8 
L 1396.125 145.8 
L 1409.985 145.8 
L 1423.845 145.8 
L 1437.705 145.8 
L 1451.565 145.8 
L 1465.425 145.8 
L 1479.285 145.8 
L 1493.145 145.8 
L 1507.005 145.8 
L 1520.865 145.8 
L 1534.725 145.8 
L 1548.585 145.8 
L 1562.445 145.8 
L 1576.305 145.8 
L 1590.165 145.8 
L 1604.025 145.8 
L 1617.885 145.8 
L 1631.745 145.8 
L 1645.605 145.8 
L 1659.465 145.8 
L 1673.325 145.8 
L 1687.185 145.8 
L 1701.045 145.8 
L 1714.905 145.8 
L 1728.765 145.8 
L 1742.625 145.8 
L 1756.485 145.8 
L 1770.345 145.8 
L 1784.205 145.8 
L 1798.065 145.8 
L 1811.925 145.8 
L 1825.785 145.8 
L 1839.645 145.8 
L 1853.505 145.8 
L 1867.365 145.8 
L 1881.225 145.8 
L 1895.085 145.8 
L 1908.945 145.8 
L 1922.805 145.8 
L 1936.665 145.8 
L 1950.525 145.8 
L 1964.385 145.8 
L 1978.245 145.8 
L 1992.105 145.8 
L 2005.965 145.8 
L 2019.825 145.8 
L 2033.685 145.8 
L 2047.545 145.8 
L 2061.405 145.8 
L 2075.265 145.8 
L 2089.125 145.8 
L 2102.985 145.8 
L 2116.845 145.8 
L 2130.705 145.8 
L 2144.565 145.8 
L 2158.425 145.8 
L 2172.285 145.8 
L 2186.145 145.8 
L 2200.005 145.8 
L 2213.865 145.8 
L 2227.725 145.8 
L 2241.585 145.8 
L 2255.445 145.8 
L 2269.305 145.8 
L 2283.165 145.8 
L 2283.165 7.2 
L 2269.305 7.2 
L 2255.445 7.2 
L 2241.585 7.2 
L 2227.725 7.2 
L 2213.865 7.2 
L 2200.005 7.2 
L 2186.145 7.2 
L 2172.285 7.2 
L 2158.425 7.2 
L 2144.565 7.2 
L 2130.705 7.2 
L 2116.845 7.2 
L 2102.985 7.2 
L 2089.125 7.2 
L 2075.265 7.2 
L 2061.405 7.2 
L 2047.545 7.2 
L 2033.685 7.2 
L 2019.825 7.2 
L 2005.965 7.2 
L 1992.105 7.2 
L 1978.245 7.2 
L 1964.385 7.2 
L 1950.525 7.2 
L 1936.665 7.2 
L 1922.805 7.2 
L 1908.945 7.2 
L 1895.085 7.2 
L 1881.225 7.2 
L 1867.365 7.2 
L 1853.505 7.2 
L 1839.645 7.2 
L 1825.785 7.2 
L 1811.925 7.2 
L 1798.065 7.2 
L 1784.205 7.2 
L 1770.345 7.2 
L 1756.485 7.2 
L 1742.625 7.2 
L 1728.765 7.2 
L 1714.905 7.2 
L 1701.045 7.2 
L 1687.185 7.2 
L 1673.325 7.2 
L 1659.465 7.2 
L 1645.605 7.2 
L 1631.745 7.2 
L 1617.885 7.2 
L 1604.025 7.2 
L 1590.165 7.2 
L 1576.305 7.2 
L 1562.445 7.2 
L 1548.585 7.2 
L 1534.725 7.2 
L 1520.865 7.2 
L 1507.005 7.2 
L 1493.145 7.2 
L 1479.285 7.2 
L 1465.425 7.2 
L 1451.565 7.2 
L 1437.705 7.2 
L 1423.845 7.2 
L 1409.985 7.2 
L 1396.125 7.2 
L 1382.265 7.2 
L 1368.405 7.2 
L 1354.545 7.2 
L 1340.685 7.2 
L 1326.825 7.2 
L 1312.965 7.2 
L 1299.105 7.2 
L 1285.245 7.2 
L 1271.385 7.2 
L 1257.525 7.2 
L 1243.665 7.2 
L 1229.805 7.2 
L 1215.945 7.2 
L 1202.085 7.2 
L 1188.225 7.2 
L 1174.365 7.2 
L 1160.505 7.2 
L 1146.645 7.2 
L 1132.785 7.2 
L 1118.925 7.2 
L 1105.065 7.2 
L 1091.205 7.2 
L 1077.345 7.2 
L 1063.485 7.2 
L 1049.625 7.2 
L 1035.765 7.2 
L 1021.905 7.2 
L 1008.045 7.2 
L 994.185 7.2 
L 980.325 7.2 
L 966.465 7.2 
L 952.605 7.2 
L 938.745 7.2 
L 924.885 7.2 
L 911.025 7.2 
L 897.165 7.2 
L 883.305 7.2 
L 869.445 7.2 
L 855.585 7.2 
L 841.725 7.2 
L 827.865 7.2 
L 814.005 7.2 
L 800.145 7.2 
L 786.285 7.2 
L 772.425 7.2 
L 758.565 7.2 
L 744.705 7.2 
L 730.845 7.2 
L 716.985 7.2 
L 703.125 7.2 
L 689.265 7.2 
L 675.405 7.2 
L 661.545 7.2 
L 647.685 7.2 
L 633.825 7.2 
L 619.965 7.2 
L 606.105 7.2 
L 592.245 7.2 
L 578.385 7.2 
L 564.525 7.2 
L 550.665 7.2 
L 536.805 7.2 
L 522.945 7.2 
L 509.085 7.2 
L 495.225 7.2 
L 481.365 7.2 
L 467.505 7.2 
L 453.645 7.2 
L 439.785 7.2 
L 425.925 7.2 
L 412.065 7.2 
L 398.205 7.2 
L 384.345 7.2 
L 370.485 7.2 
L 356.625 7.2 
L 342.765 7.2 
L 328.905 7.2 
L 315.045 7.2 
L 301.185 7.2 
L 287.325 7.2 
L 273.465 7.2 
L 259.605 7.2 
L 245.745 7.2 
L 231.885 7.2 
L 218.025 7.2 
L 204.165 7.2 
L 190.305 7.2 
L 176.445 7.2 
L 162.585 7.2 
L 148.725 7.2 
L 134.865 7.2 
L 121.005 7.2 
L 107.145 7.2 
L 93.285 7.2 
L 79.425 7.2 
L 65.565 7.2 
L 51.705 7.2 
L 37.845 7.2 
L 23.985 7.2 
L 10.125 7.2 
L -3.735 7.2 
L -17.595 7.2 
L -31.455 7.2 
L -45.315 7.2 
L -59.175 7.2 
L -73.035 7.2 
L -86.895 7.2 
L -100.755 7.2 
L -114.615 7.2 
L -128.475 7.2 
L -142.335 7.2 
L -156.195 7.2 
L -170.055 7.2 
L -183.915 7.2 
L -197.775 7.2 
L -211.635 7.2 
L -225.495 7.2 
L -239.355 7.2 
L -253.215 7.2 
L -267.075 7.2 
L -280.935 7.2 
L -294.795 7.2 
L -308.655 7.2 
L -322.515 7.2 
L -336.375 7.2 
L -350.235 7.2 
L -364.095 7.2 
L -377.955 7.2 
L -391.815 7.2 
L -405.675 7.2 
L -419.535 7.2 
L -433.395 7.2 
L -447.255 7.2 
L -461.115 7.2 
L -474.975 7.2 
L -488.835 7.2 
L -502.695 7.2 
L -516.555 7.2 
L -530.415 7.2 
L -544.275 7.2 
L -558.135 7.2 
L -571.995 7.2 
L -585.855 7.2 
L -599.715 7.2 
L -613.575 7.2 
z
" style="fill:#c7c7c7;"/>
   </g>
   <g id="PathCollection_1"/>
   <g id="PathCollection_2">
    <path clip-path="url(#p454962a057)" d="M -613.575 225.495 
L -592.785 215.1 
L -613.575 204.705 
z
" style="fill:#dddddd;stroke:#dddddd;stroke-width:0.5;"/>
    <path clip-path="url(#p454962a057)" d="M -613.575 86.895 
L -592.785 76.5 
L -613.575 66.105 
z
" style="fill:#dddddd;stroke:#dddddd;stroke-width:0.5;"/>
   </g>
   <g id="PathCollection_3">
    <path clip-path="url(#p454962a057)" d="M -1 284.4 
L 922.15 284.4 
L 922.15 284.4 
" style="fill:none;stroke:#555555;stroke-width:0.5;"/>
    <path clip-path="url(#p454962a057)" d="M -1 145.8 
L 922.15 145.8 
L 922.15 145.8 
" style="fill:none;stroke:#555555;stroke-width:0.5;"/>
   </g>
   <g id="PathCollection_4">
    <path clip-path="url(#p454962a057)" d="M -1 145.8 
L 922.15 145.8 
L 922.15 145.8 
" style="fill:none;stroke:#555555;stroke-width:0.5;"/>
    <path clip-path="url(#p454962a057)" d="M -1 7.2 
L 922.15 7.2 
L 922.15 7.2 
" style="fill:none;stroke:#555555;stroke-width:0.5;"/>
   </g>
   <g id="PatchCollection_1">
    <path clip-path="url(#p454962a057)" d="M 356.625 158.8284 
C 360.300715 158.8284 363.826377 157.368023 366.4255 154.7689 
C 369.024623 152.169777 370.485 148.644115 370.485 144.9684 
C 370.485 141.292685 369.024623 137.767023 366.4255 135.1679 
C 363.826377 132.568777 360.300715 131.1084 356.625 131.1084 
C 352.949285 131.1084 349.423623 132.568777 346.8245 135.1679 
C 344.225377 137.767023 342.765 141.292685 342.765 144.9684 
C 342.765 148.644115 344.225377 152.169777 346.8245 154.7689 
C 349.423623 157.368023 352.949285 158.8284 356.625 158.8284 
z
" style="fill:#008000;stroke:#008000;"/>
    <path clip-path="url(#p454962a057)" d="M 468.868548 142.72323 
L 419.315144 160.349757 
L 419.093399 149.263974 
L 356.735873 150.511291 
L 356.514127 139.425509 
L 418.871654 138.178192 
L 418.649909 127.092409 
z
" style="fill:#008000;stroke:#008000;"/>
    <path clip-path="url(#p454962a057)" d="M 772.425 156.888 
L 772.425 134.712 
L 841.725 134.712 
L 841.725 156.888 
z
" style="fill:#f1b514;stroke:#302404;stroke-width:0.5;"/>
    <path clip-path="url(#p454962a057)" d="M 513.578344 154.835046 
L 511.899827 136.235244 
L 536.746856 133.992954 
L 538.425373 152.592756 
z
" style="fill:#d95558;stroke:#831d20;stroke-width:0.5;"/>
    <path clip-path="url(#p454962a057)" d="M 651.2886 153.751693 
L 651.2886 135.076307 
L 676.2366 135.076307 
L 676.2366 153.751693 
z
" style="fill:#d95558;stroke:#831d20;stroke-width:0.5;"/>
    <path clip-path="url(#p454962a057)" d="M 720.5886 96.925693 
L 720.5886 78.250307 
L 745.5366 78.250307 
L 745.5366 96.925693 
z
" style="fill:#d95558;stroke:#831d20;stroke-width:0.5;"/>
    <path clip-path="url(#p454962a057)" d="M 356.625 151.8984 
C 358.462857 151.8984 360.225689 151.168211 361.52525 149.86865 
C 362.824811 148.569089 363.555 146.806257 363.555 144.9684 
C 363.555 143.130543 362.824811 141.367711 361.52525 140.06815 
C 360.225689 138.768589 358.462857 138.0384 356.625 138.0384 
C 354.787143 138.0384 353.024311 138.768589 351.72475 140.06815 
C 350.425189 141.367711 349.695 143.130543 349.695 144.9684 
C 349.695 146.806257 350.425189 148.569089 351.72475 149.86865 
C 353.024311 151.168211 354.787143 151.8984 356.625 151.8984 
z
" style="fill:#1d7eea;stroke:#00478f;stroke-width:0.5;"/>
   </g>
   <g id="line2d_1">
    <path clip-path="url(#p454962a057)" d="M 356.625 144.9684 
" style="fill:none;stroke:#ffd700;stroke-linecap:square;stroke-width:2;"/>
   </g>
   <g id="line2d_2">
    <path clip-path="url(#p454962a057)" d="M 356.625 144.9684 
L 369.099 144.71892 
L 381.573 144.46944 
L 394.047 144.21996 
L 406.521 143.97048 
L 418.995 143.721 
" style="fill:none;stroke:#ffd700;stroke-linecap:square;stroke-width:2;"/>
   </g>
   <g id="line2d_3">
    <path clip-path="url(#p454962a057)" d="M 356.625 144.9684 
L 369.099 144.71892 
L 381.570878 144.382355 
L 394.032729 143.784379 
L 406.465616 142.750448 
L 418.832085 141.106518 
" style="fill:none;stroke:#ffd700;stroke-linecap:square;stroke-width:2;"/>
   </g>
   <g id="line2d_4">
    <path clip-path="url(#p454962a057)" d="M 356.625 144.9684 
L 369.099 144.71892 
L 381.574362 144.55654 
L 394.050157 144.655763 
L 406.514442 145.191751 
L 418.936752 146.339906 
" style="fill:none;stroke:#ffd700;stroke-linecap:square;stroke-width:2;"/>
   </g>
   <g id="line2d_5">
    <path clip-path="url(#p454962a057)" d="M 418.995 143.721 
L 431.469 143.47152 
L 443.943 143.22204 
L 456.417 142.97256 
L 468.891 142.72308 
L 481.365 142.4736 
" style="fill:none;stroke:#ffd700;stroke-linecap:square;stroke-width:2;"/>
   </g>
   <g id="line2d_6">
    <path clip-path="url(#p454962a057)" d="M 418.995 143.721 
L 431.469 143.47152 
L 443.940878 143.134955 
L 456.402729 142.536979 
L 468.835616 141.503048 
L 481.202085 139.859118 
" style="fill:none;stroke:#ffd700;stroke-linecap:square;stroke-width:2;"/>
   </g>
   <g id="line2d_7">
    <path clip-path="url(#p454962a057)" d="M 418.995 143.721 
L 431.469 143.47152 
L 443.944362 143.30914 
L 456.420157 143.408363 
L 468.884442 143.944351 
L 481.306752 145.092506 
" style="fill:none;stroke:#ffd700;stroke-linecap:square;stroke-width:2;"/>
   </g>
   <g id="line2d_8">
    <path clip-path="url(#p454962a057)" d="M 481.365 142.4736 
L 493.839 142.22412 
L 506.313 141.97464 
L 518.787 141.72516 
L 531.261 141.47568 
L 543.735 141.2262 
" style="fill:none;stroke:#ffd700;stroke-dasharray:7.4,3.2;stroke-dashoffset:0;stroke-width:2;"/>
   </g>
   <g id="line2d_9">
    <path clip-path="url(#p454962a057)" d="M 481.365 142.4736 
L 493.839 142.22412 
L 506.310878 141.887555 
L 518.772729 141.289579 
L 531.205616 140.255648 
L 543.572085 138.611718 
" style="fill:none;stroke:#ffd700;stroke-dasharray:7.4,3.2;stroke-dashoffset:0;stroke-width:2;"/>
   </g>
   <g id="line2d_10">
    <path clip-path="url(#p454962a057)" d="M 481.365 142.4736 
L 493.839 142.22412 
L 506.314362 142.06174 
L 518.790157 142.160963 
L 531.254442 142.696951 
L 543.676752 143.845106 
" style="fill:none;stroke:#ffd700;stroke-dasharray:7.4,3.2;stroke-dashoffset:0;stroke-width:2;"/>
   </g>
   <g id="line2d_11">
    <path clip-path="url(#p454962a057)" d="M 481.306752 145.092506 
L 493.627969 147.02632 
L 505.802287 149.738478 
L 517.829051 153.046108 
L 529.732989 156.772944 
L 541.556388 160.748623 
" style="fill:none;stroke:#ffd700;stroke-dasharray:7.4,3.2;stroke-dashoffset:0;stroke-width:2;"/>
   </g>
   <g id="line2d_12">
    <path clip-path="url(#p454962a057)" d="M 481.306752 145.092506 
L 493.627969 147.02632 
L 505.781678 149.826205 
L 517.707083 153.478156 
L 529.344526 157.963903 
L 540.635793 163.261007 
" style="fill:none;stroke:#ffd700;stroke-dasharray:7.4,3.2;stroke-dashoffset:0;stroke-width:2;"/>
   </g>
   <g id="line2d_13">
    <path clip-path="url(#p454962a057)" d="M 481.202085 139.859118 
L 493.436113 137.434133 
L 505.492236 134.237301 
L 517.37711 130.451375 
L 529.122493 126.251489 
L 540.77745 121.806181 
" style="fill:none;stroke:#ffd700;stroke-linecap:square;stroke-width:2;"/>
   </g>
   <g id="line2d_14">
    <path clip-path="url(#p454962a057)" d="M 481.202085 139.859118 
L 493.436113 137.434133 
L 505.468136 134.150468 
L 517.237962 130.02455 
L 528.686714 125.077017 
L 539.757122 119.33262 
" style="fill:none;stroke:#ffd700;stroke-linecap:square;stroke-width:2;"/>
   </g>
   <g id="line2d_15">
    <path clip-path="url(#p454962a057)" d="M 540.77745 121.806181 
L 552.401156 117.27958 
L 564.024863 112.752978 
L 575.648569 108.226376 
L 587.272276 103.699775 
L 598.895982 99.173173 
" style="fill:none;stroke:#ffd700;stroke-linecap:square;stroke-width:2;"/>
   </g>
   <g id="line2d_16">
    <path clip-path="url(#p454962a057)" d="M 540.77745 121.806181 
L 552.401156 117.27958 
L 563.992904 112.67196 
L 575.485285 107.8224 
L 586.800462 102.573568 
L 597.843385 96.774975 
" style="fill:none;stroke:#ffd700;stroke-linecap:square;stroke-width:2;"/>
   </g>
   <g id="line2d_17">
    <path clip-path="url(#p454962a057)" d="M 540.77745 121.806181 
L 552.401156 117.27958 
L 564.056113 112.834272 
L 575.801496 108.634386 
L 587.686369 104.848459 
L 599.742492 101.651628 
" style="fill:none;stroke:#ffd700;stroke-linecap:square;stroke-width:2;"/>
   </g>
   <g id="line2d_18">
    <path clip-path="url(#p454962a057)" d="M 599.742492 101.651628 
L 611.976521 99.226643 
L 624.340513 97.583009 
L 636.770911 96.549251 
L 649.230269 95.951361 
L 661.699653 95.61483 
" style="fill:none;stroke:#ffd700;stroke-linecap:square;stroke-width:2;"/>
   </g>
   <g id="line2d_19">
    <path clip-path="url(#p454962a057)" d="M 599.742492 101.651628 
L 611.976521 99.226643 
L 624.351357 97.67247 
L 636.805095 96.996881 
L 649.275436 97.203258 
L 661.7 98.290568 
" style="fill:none;stroke:#ffd700;stroke-linecap:square;stroke-width:2;"/>
   </g>
   <g id="line2d_20">
    <path clip-path="url(#p454962a057)" d="M 661.7 98.290568 
L 674.016631 100.253371 
L 686.184534 102.994171 
L 698.20348 106.330093 
L 710.098616 110.084932 
L 721.912627 114.088422 
" style="fill:none;stroke:#ffd700;stroke-linecap:square;stroke-width:2;"/>
   </g>
   <g id="line2d_21">
    <path clip-path="url(#p454962a057)" d="M 661.7 98.290568 
L 674.016631 100.253371 
L 686.163718 103.081849 
L 698.080496 106.761853 
L 709.707351 111.274973 
L 720.986121 116.598633 
" style="fill:none;stroke:#ffd700;stroke-linecap:square;stroke-width:2;"/>
   </g>
   <g id="line2d_22">
    <path clip-path="url(#p454962a057)" d="M 720.986121 116.598633 
L 731.860385 122.706202 
L 742.325642 129.492086 
L 752.445024 136.784655 
L 762.303155 144.42732 
L 771.999053 152.275143 
" style="fill:none;stroke:#ffd700;stroke-linecap:square;stroke-width:2;"/>
   </g>
   <g id="line2d_23">
    <path clip-path="url(#p454962a057)" d="M 720.986121 116.598633 
L 731.860385 122.706202 
L 742.275745 129.567126 
L 752.180099 137.147086 
L 761.523901 145.408162 
L 770.260409 154.309029 
" style="fill:none;stroke:#ffd700;stroke-linecap:square;stroke-width:2;"/>
   </g>
   <g id="line2d_24">
    <path clip-path="url(#p454962a057)" d="M 771.999053 152.275143 
L 781.639981 160.19052 
L 791.280909 168.105897 
L 800.921836 176.021273 
L 810.562764 183.93665 
L 820.203692 191.852027 
" style="fill:none;stroke:#ffd700;stroke-linecap:square;stroke-width:2;"/>
   </g>
   <g id="line2d_25">
    <path clip-path="url(#p454962a057)" d="M 771.999053 152.275143 
L 781.639981 160.19052 
L 791.335879 168.038343 
L 801.19401 175.681008 
L 811.313392 182.973578 
L 821.778649 189.759462 
" style="fill:none;stroke:#ffd700;stroke-linecap:square;stroke-width:2;"/>
   </g>
   <g id="line2d_26">
    <path clip-path="url(#p454962a057)" d="M 771.999053 152.275143 
L 781.639981 160.19052 
L 791.22535 168.172968 
L 800.641073 176.354486 
L 809.764263 184.860417 
L 818.457802 193.804252 
" style="fill:none;stroke:#ffd700;stroke-linecap:square;stroke-width:2;"/>
   </g>
   <g id="line2d_27">
    <path clip-path="url(#p454962a057)" d="M 770.260409 154.309029 
L 778.34592 163.805161 
L 785.812788 173.795943 
L 792.779684 184.142237 
L 799.380236 194.726461 
L 805.757535 205.446947 
" style="fill:none;stroke:#ffd700;stroke-linecap:square;stroke-width:2;"/>
   </g>
   <g id="line2d_28">
    <path clip-path="url(#p454962a057)" d="M 770.260409 154.309029 
L 778.34592 163.805161 
L 785.739987 173.849054 
L 792.40562 184.390465 
L 798.309476 195.376661 
L 803.422021 206.752684 
" style="fill:none;stroke:#ffd700;stroke-linecap:square;stroke-width:2;"/>
   </g>
   <g id="line2d_29">
    <path clip-path="url(#p454962a057)" d="M 721.912627 114.088422 
L 733.698469 118.174324 
L 745.484311 122.260227 
L 757.270153 126.346129 
L 769.055996 130.432032 
L 780.841838 134.517934 
" style="fill:none;stroke:#ffd700;stroke-linecap:square;stroke-width:2;"/>
   </g>
   <g id="line2d_30">
    <path clip-path="url(#p454962a057)" d="M 721.912627 114.088422 
L 733.698469 118.174324 
L 745.512479 122.177814 
L 757.407615 125.932653 
L 769.426562 129.268575 
L 781.594464 132.009375 
" style="fill:none;stroke:#ffd700;stroke-linecap:square;stroke-width:2;"/>
   </g>
   <g id="line2d_31">
    <path clip-path="url(#p454962a057)" d="M 721.912627 114.088422 
L 733.698469 118.174324 
L 745.455425 122.34239 
L 757.12219 126.755965 
L 768.626904 131.575198 
L 779.880249 136.954051 
" style="fill:none;stroke:#ffd700;stroke-linecap:square;stroke-width:2;"/>
   </g>
   <g id="line2d_32">
    <path clip-path="url(#p454962a057)" d="M 721.912627 114.088422 
L 733.698469 118.174324 
L 745.455425 122.34239 
L 757.12219 126.755965 
L 768.626904 131.575198 
L 779.880249 136.954051 
" style="fill:none;stroke:#008000;stroke-linecap:square;stroke-width:3;"/>
   </g>
   <g id="line2d_33">
    <path clip-path="url(#p454962a057)" d="M 356.625 144.9684 
" style="fill:none;stroke:#008000;stroke-linecap:square;stroke-width:3;"/>
   </g>
   <g id="line2d_34">
    <path clip-path="url(#p454962a057)" d="M 356.625 144.9684 
L 369.099 144.71892 
L 381.573 144.46944 
L 394.047 144.21996 
L 406.521 143.97048 
L 418.995 143.721 
" style="fill:none;stroke:#008000;stroke-linecap:square;stroke-width:3;"/>
   </g>
   <g id="line2d_35">
    <path clip-path="url(#p454962a057)" d="M 418.995 143.721 
L 431.469 143.47152 
L 443.940878 143.134955 
L 456.402729 142.536979 
L 468.835616 141.503048 
L 481.202085 139.859118 
" style="fill:none;stroke:#008000;stroke-linecap:square;stroke-width:3;"/>
   </g>
   <g id="line2d_36">
    <path clip-path="url(#p454962a057)" d="M 481.202085 139.859118 
L 493.436113 137.434133 
L 505.492236 134.237301 
L 517.37711 130.451375 
L 529.122493 126.251489 
L 540.77745 121.806181 
" style="fill:none;stroke:#008000;stroke-linecap:square;stroke-width:3;"/>
   </g>
   <g id="line2d_37">
    <path clip-path="url(#p454962a057)" d="M 540.77745 121.806181 
L 552.401156 117.27958 
L 564.056113 112.834272 
L 575.801496 108.634386 
L 587.686369 104.848459 
L 599.742492 101.651628 
" style="fill:none;stroke:#008000;stroke-linecap:square;stroke-width:3;"/>
   </g>
   <g id="line2d_38">
    <path clip-path="url(#p454962a057)" d="M 599.742492 101.651628 
L 611.976521 99.226643 
L 624.351357 97.67247 
L 636.805095 96.996881 
L 649.275436 97.203258 
L 661.7 98.290568 
" style="fill:none;stroke:#008000;stroke-linecap:square;stroke-width:3;"/>
   </g>
   <g id="line2d_39">
    <path clip-path="url(#p454962a057)" d="M 661.7 98.290568 
L 674.016631 100.253371 
L 686.184534 102.994171 
L 698.20348 106.330093 
L 710.098616 110.084932 
L 721.912627 114.088422 
" style="fill:none;stroke:#008000;stroke-linecap:square;stroke-width:3;"/>
   </g>
   <g id="line2d_40">
    <path clip-path="url(#p454962a057)" d="M 721.912627 114.088422 
L 733.698469 118.174324 
L 745.455425 122.34239 
L 757.12219 126.755965 
L 768.626904 131.575198 
L 779.880249 136.954051 
" style="fill:none;stroke:#008000;stroke-linecap:square;stroke-width:3;"/>
   </g>
   <g id="line2d_41">
    <path clip-path="url(#p454962a057)" d="M 356.625 144.9684 
" style="fill:none;stroke:#ffd700;stroke-linecap:square;stroke-width:1.5;"/>
    <defs>
     <path d="M 0 4 
C 1.060812 4 2.078319 3.578535 2.828427 2.828427 
C 3.578535 2.078319 4 1.060812 4 0 
C 4 -1.060812 3.578535 -2.078319 2.828427 -2.828427 
C 2.078319 -3.578535 1.060812 -4 0 -4 
C -1.060812 -4 -2.078319 -3.578535 -2.828427 -2.828427 
C -3.578535 -2.078319 -4 -1.060812 -4 0 
C -4 1.060812 -3.578535 2.078319 -2.828427 2.828427 
C -2.078319 3.578535 -1.060812 4 0 4 
z
" id="ma03ac1f0e4" style="stroke:#ffd700;"/>
    </defs>
    <g clip-path="url(#p454962a057)">
     <use style="fill:#ffd700;stroke:#ffd700;" x="356.625" xlink:href="#ma03ac1f0e4" y="144.9684"/>
    </g>
   </g>
   <g id="line2d_42">
    <path clip-path="url(#p454962a057)" d="M 418.995 143.721 
" style="fill:none;stroke:#ffd700;stroke-linecap:square;stroke-width:1.5;"/>
    <g clip-path="url(#p454962a057)">
     <use style="fill:#ffd700;stroke:#ffd700;" x="418.995" xlink:href="#ma03ac1f0e4" y="143.721"/>
    </g>
   </g>
   <g id="line2d_43">
    <path clip-path="url(#p454962a057)" d="M 418.832085 141.106518 
" style="fill:none;stroke:#ffd700;stroke-linecap:square;stroke-width:1.5;"/>
    <g clip-path="url(#p454962a057)">
     <use style="fill:#ffd700;stroke:#ffd700;" x="418.832085" xlink:href="#ma03ac1f0e4" y="141.106518"/>
    </g>
   </g>
   <g id="line2d_44">
    <path clip-path="url(#p454962a057)" d="M 418.936752 146.339906 
" style="fill:none;stroke:#ffd700;stroke-linecap:square;stroke-width:1.5;"/>
    <g clip-path="url(#p454962a057)">
     <use style="fill:#ffd700;stroke:#ffd700;" x="418.936752" xlink:href="#ma03ac1f0e4" y="146.339906"/>
    </g>
   </g>
   <g id="line2d_45">
    <path clip-path="url(#p454962a057)" d="M 481.365 142.4736 
" style="fill:none;stroke:#ffd700;stroke-linecap:square;stroke-width:1.5;"/>
    <g clip-path="url(#p454962a057)">
     <use style="fill:#ffd700;stroke:#ffd700;" x="481.365" xlink:href="#ma03ac1f0e4" y="142.4736"/>
    </g>
   </g>
   <g id="line2d_46">
    <path clip-path="url(#p454962a057)" d="M 481.202085 139.859118 
" style="fill:none;stroke:#ffd700;stroke-linecap:square;stroke-width:1.5;"/>
    <g clip-path="url(#p454962a057)">
     <use style="fill:#ffd700;stroke:#ffd700;" x="481.202085" xlink:href="#ma03ac1f0e4" y="139.859118"/>
    </g>
   </g>
   <g id="line2d_47">
    <path clip-path="url(#p454962a057)" d="M 481.306752 145.092506 
" style="fill:none;stroke:#ffd700;stroke-linecap:square;stroke-width:1.5;"/>
    <g clip-path="url(#p454962a057)">
     <use style="fill:#ffd700;stroke:#ffd700;" x="481.306752" xlink:href="#ma03ac1f0e4" y="145.092506"/>
    </g>
   </g>
   <g id="line2d_48">
    <path clip-path="url(#p454962a057)" d="M 543.735 141.2262 
" style="fill:none;stroke:#ffd700;stroke-linecap:square;stroke-width:1.5;"/>
    <g clip-path="url(#p454962a057)">
     <use style="fill:#ffd700;stroke:#ffd700;" x="543.735" xlink:href="#ma03ac1f0e4" y="141.2262"/>
    </g>
   </g>
   <g id="line2d_49">
    <path clip-path="url(#p454962a057)" d="M 543.572085 138.611718 
" style="fill:none;stroke:#ffd700;stroke-linecap:square;stroke-width:1.5;"/>
    <g clip-path="url(#p454962a057)">
     <use style="fill:#ffd700;stroke:#ffd700;" x="543.572085" xlink:href="#ma03ac1f0e4" y="138.611718"/>
    </g>
   </g>
   <g id="line2d_50">
    <path clip-path="url(#p454962a057)" d="M 543.676752 143.845106 
" style="fill:none;stroke:#ffd700;stroke-linecap:square;stroke-width:1.5;"/>
    <g clip-path="url(#p454962a057)">
     <use style="fill:#ffd700;stroke:#ffd700;" x="543.676752" xlink:href="#ma03ac1f0e4" y="143.845106"/>
    </g>
   </g>
   <g id="line2d_51">
    <path clip-path="url(#p454962a057)" d="M 541.556388 160.748623 
" style="fill:none;stroke:#ffd700;stroke-linecap:square;stroke-width:1.5;"/>
    <g clip-path="url(#p454962a057)">
     <use style="fill:#ffd700;stroke:#ffd700;" x="541.556388" xlink:href="#ma03ac1f0e4" y="160.748623"/>
    </g>
   </g>
   <g id="line2d_52">
    <path clip-path="url(#p454962a057)" d="M 540.635793 163.261007 
" style="fill:none;stroke:#ffd700;stroke-linecap:square;stroke-width:1.5;"/>
    <g clip-path="url(#p454962a057)">
     <use style="fill:#ffd700;stroke:#ffd700;" x="540.635793" xlink:href="#ma03ac1f0e4" y="163.261007"/>
    </g>
   </g>
   <g id="line2d_53">
    <path clip-path="url(#p454962a057)" d="M 540.77745 121.806181 
" style="fill:none;stroke:#ffd700;stroke-linecap:square;stroke-width:1.5;"/>
    <g clip-path="url(#p454962a057)">
     <use style="fill:#ffd700;stroke:#ffd700;" x="540.77745" xlink:href="#ma03ac1f0e4" y="121.806181"/>
    </g>
   </g>
   <g id="line2d_54">
    <path clip-path="url(#p454962a057)" d="M 539.757122 119.33262 
" style="fill:none;stroke:#ffd700;stroke-linecap:square;stroke-width:1.5;"/>
    <g clip-path="url(#p454962a057)">
     <use style="fill:#ffd700;stroke:#ffd700;" x="539.757122" xlink:href="#ma03ac1f0e4" y="119.33262"/>
    </g>
   </g>
   <g id="line2d_55">
    <path clip-path="url(#p454962a057)" d="M 598.895982 99.173173 
" style="fill:none;stroke:#ffd700;stroke-linecap:square;stroke-width:1.5;"/>
    <g clip-path="url(#p454962a057)">
     <use style="fill:#ffd700;stroke:#ffd700;" x="598.895982" xlink:href="#ma03ac1f0e4" y="99.173173"/>
    </g>
   </g>
   <g id="line2d_56">
    <path clip-path="url(#p454962a057)" d="M 597.843385 96.774975 
" style="fill:none;stroke:#ffd700;stroke-linecap:square;stroke-width:1.5;"/>
    <g clip-path="url(#p454962a057)">
     <use style="fill:#ffd700;stroke:#ffd700;" x="597.843385" xlink:href="#ma03ac1f0e4" y="96.774975"/>
    </g>
   </g>
   <g id="line2d_57">
    <path clip-path="url(#p454962a057)" d="M 599.742492 101.651628 
" style="fill:none;stroke:#ffd700;stroke-linecap:square;stroke-width:1.5;"/>
    <g clip-path="url(#p454962a057)">
     <use style="fill:#ffd700;stroke:#ffd700;" x="599.742492" xlink:href="#ma03ac1f0e4" y="101.651628"/>
    </g>
   </g>
   <g id="line2d_58">
    <path clip-path="url(#p454962a057)" d="M 661.699653 95.61483 
" style="fill:none;stroke:#ffd700;stroke-linecap:square;stroke-width:1.5;"/>
    <g clip-path="url(#p454962a057)">
     <use style="fill:#ffd700;stroke:#ffd700;" x="661.699653" xlink:href="#ma03ac1f0e4" y="95.61483"/>
    </g>
   </g>
   <g id="line2d_59">
    <path clip-path="url(#p454962a057)" d="M 661.7 98.290568 
" style="fill:none;stroke:#ffd700;stroke-linecap:square;stroke-width:1.5;"/>
    <g clip-path="url(#p454962a057)">
     <use style="fill:#ffd700;stroke:#ffd700;" x="661.7" xlink:href="#ma03ac1f0e4" y="98.290568"/>
    </g>
   </g>
   <g id="line2d_60">
    <path clip-path="url(#p454962a057)" d="M 721.912627 114.088422 
" style="fill:none;stroke:#ffd700;stroke-linecap:square;stroke-width:1.5;"/>
    <g clip-path="url(#p454962a057)">
     <use style="fill:#ffd700;stroke:#ffd700;" x="721.912627" xlink:href="#ma03ac1f0e4" y="114.088422"/>
    </g>
   </g>
   <g id="line2d_61">
    <path clip-path="url(#p454962a057)" d="M 720.986121 116.598633 
" style="fill:none;stroke:#ffd700;stroke-linecap:square;stroke-width:1.5;"/>
    <g clip-path="url(#p454962a057)">
     <use style="fill:#ffd700;stroke:#ffd700;" x="720.986121" xlink:href="#ma03ac1f0e4" y="116.598633"/>
    </g>
   </g>
   <g id="line2d_62">
    <path clip-path="url(#p454962a057)" d="M 771.999053 152.275143 
" style="fill:none;stroke:#ffd700;stroke-linecap:square;stroke-width:1.5;"/>
    <g clip-path="url(#p454962a057)">
     <use style="fill:#ffd700;stroke:#ffd700;" x="771.999053" xlink:href="#ma03ac1f0e4" y="152.275143"/>
    </g>
   </g>
   <g id="line2d_63">
    <path clip-path="url(#p454962a057)" d="M 770.260409 154.309029 
" style="fill:none;stroke:#ffd700;stroke-linecap:square;stroke-width:1.5;"/>
    <g clip-path="url(#p454962a057)">
     <use style="fill:#ffd700;stroke:#ffd700;" x="770.260409" xlink:href="#ma03ac1f0e4" y="154.309029"/>
    </g>
   </g>
   <g id="line2d_64">
    <path clip-path="url(#p454962a057)" d="M 820.203692 191.852027 
" style="fill:none;stroke:#ffd700;stroke-linecap:square;stroke-width:1.5;"/>
    <g clip-path="url(#p454962a057)">
     <use style="fill:#ffd700;stroke:#ffd700;" x="820.203692" xlink:href="#ma03ac1f0e4" y="191.852027"/>
    </g>
   </g>
   <g id="line2d_65">
    <path clip-path="url(#p454962a057)" d="M 821.778649 189.759462 
" style="fill:none;stroke:#ffd700;stroke-linecap:square;stroke-width:1.5;"/>
    <g clip-path="url(#p454962a057)">
     <use style="fill:#ffd700;stroke:#ffd700;" x="821.778649" xlink:href="#ma03ac1f0e4" y="189.759462"/>
    </g>
   </g>
   <g id="line2d_66">
    <path clip-path="url(#p454962a057)" d="M 818.457802 193.804252 
" style="fill:none;stroke:#ffd700;stroke-linecap:square;stroke-width:1.5;"/>
    <g clip-path="url(#p454962a057)">
     <use style="fill:#ffd700;stroke:#ffd700;" x="818.457802" xlink:href="#ma03ac1f0e4" y="193.804252"/>
    </g>
   </g>
   <g id="line2d_67">
    <path clip-path="url(#p454962a057)" d="M 805.757535 205.446947 
" style="fill:none;stroke:#ffd700;stroke-linecap:square;stroke-width:1.5;"/>
    <g clip-path="url(#p454962a057)">
     <use style="fill:#ffd700;stroke:#ffd700;" x="805.757535" xlink:href="#ma03ac1f0e4" y="205.446947"/>
    </g>
   </g>
   <g id="line2d_68">
    <path clip-path="url(#p454962a057)" d="M 803.422021 206.752684 
" style="fill:none;stroke:#ffd700;stroke-linecap:square;stroke-width:1.5;"/>
    <g clip-path="url(#p454962a057)">
     <use style="fill:#ffd700;stroke:#ffd700;" x="803.422021" xlink:href="#ma03ac1f0e4" y="206.752684"/>
    </g>
   </g>
   <g id="line2d_69">
    <path clip-path="url(#p454962a057)" d="M 780.841838 134.517934 
" style="fill:none;stroke:#ffd700;stroke-linecap:square;stroke-width:1.5;"/>
    <g clip-path="url(#p454962a057)">
     <use style="fill:#ffd700;stroke:#ffd700;" x="780.841838" xlink:href="#ma03ac1f0e4" y="134.517934"/>
    </g>
   </g>
   <g id="line2d_70">
    <path clip-path="url(#p454962a057)" d="M 781.594464 132.009375 
" style="fill:none;stroke:#ffd700;stroke-linecap:square;stroke-width:1.5;"/>
    <g clip-path="url(#p454962a057)">
     <use style="fill:#ffd700;stroke:#ffd700;" x="781.594464" xlink:href="#ma03ac1f0e4" y="132.009375"/>
    </g>
   </g>
   <g id="line2d_71">
    <path clip-path="url(#p454962a057)" d="M 779.880249 136.954051 
" style="fill:none;stroke:#ffd700;stroke-linecap:square;stroke-width:1.5;"/>
    <g clip-path="url(#p454962a057)">
     <use style="fill:#ffd700;stroke:#ffd700;" x="779.880249" xlink:href="#ma03ac1f0e4" y="136.954051"/>
    </g>
   </g>
   <g id="line2d_72">
    <path clip-path="url(#p454962a057)" d="M 779.880249 136.954051 
" style="fill:none;stroke:#008000;stroke-linecap:square;stroke-width:1.5;"/>
    <defs>
     <path d="M 0 4 
C 1.060812 4 2.078319 3.578535 2.828427 2.828427 
C 3.578535 2.078319 4 1.060812 4 0 
C 4 -1.060812 3.578535 -2.078319 2.828427 -2.828427 
C 2.078319 -3.578535 1.060812 -4 0 -4 
C -1.060812 -4 -2.078319 -3.578535 -2.828427 -2.828427 
C -3.578535 -2.078319 -4 -1.060812 -4 0 
C -4 1.060812 -3.578535 2.078319 -2.828427 2.828427 
C -2.078319 3.578535 -1.060812 4 0 4 
z
" id="m5f16f80168" style="stroke:#008000;"/>
    </defs>
    <g clip-path="url(#p454962a057)">
     <use style="fill:#008000;stroke:#008000;" x="779.880249" xlink:href="#m5f16f80168" y="136.954051"/>
    </g>
   </g>
   <g id="line2d_73">
    <path clip-path="url(#p454962a057)" d="M 356.625 144.9684 
" style="fill:none;stroke:#008000;stroke-linecap:square;stroke-width:1.5;"/>
    <g clip-path="url(#p454962a057)">
     <use style="fill:#008000;stroke:#008000;" x="356.625" xlink:href="#m5f16f80168" y="144.9684"/>
    </g>
   </g>
   <g id="line2d_74">
    <path clip-path="url(#p454962a057)" d="M 418.995 143.721 
" style="fill:none;stroke:#008000;stroke-linecap:square;stroke-width:1.5;"/>
    <g clip-path="url(#p454962a057)">
     <use style="fill:#008000;stroke:#008000;" x="418.995" xlink:href="#m5f16f80168" y="143.721"/>
    </g>
   </g>
   <g id="line2d_75">
    <path clip-path="url(#p454962a057)" d="M 481.202085 139.859118 
" style="fill:none;stroke:#008000;stroke-linecap:square;stroke-width:1.5;"/>
    <g clip-path="url(#p454962a057)">
     <use style="fill:#008000;stroke:#008000;" x="481.202085" xlink:href="#m5f16f80168" y="139.859118"/>
    </g>
   </g>
   <g id="line2d_76">
    <path clip-path="url(#p454962a057)" d="M 540.77745 121.806181 
" style="fill:none;stroke:#008000;stroke-linecap:square;stroke-width:1.5;"/>
    <g clip-path="url(#p454962a057)">
     <use style="fill:#008000;stroke:#008000;" x="540.77745" xlink:href="#m5f16f80168" y="121.806181"/>
    </g>
   </g>
   <g id="line2d_77">
    <path clip-path="url(#p454962a057)" d="M 599.742492 101.651628 
" style="fill:none;stroke:#008000;stroke-linecap:square;stroke-width:1.5;"/>
    <g clip-path="url(#p454962a057)">
     <use style="fill:#008000;stroke:#008000;" x="599.742492" xlink:href="#m5f16f80168" y="101.651628"/>
    </g>
   </g>
   <g id="line2d_78">
    <path clip-path="url(#p454962a057)" d="M 661.7 98.290568 
" style="fill:none;stroke:#008000;stroke-linecap:square;stroke-width:1.5;"/>
    <g clip-path="url(#p454962a057)">
     <use style="fill:#008000;stroke:#008000;" x="661.7" xlink:href="#m5f16f80168" y="98.290568"/>
    </g>
   </g>
   <g id="line2d_79">
    <path clip-path="url(#p454962a057)" d="M 721.912627 114.088422 
" style="fill:none;stroke:#008000;stroke-linecap:square;stroke-width:1.5;"/>
    <g clip-path="url(#p454962a057)">
     <use style="fill:#008000;stroke:#008000;" x="721.912627" xlink:href="#m5f16f80168" y="114.088422"/>
    </g>
   </g>
   <g id="line2d_80">
    <path clip-path="url(#p454962a057)" d="M 779.880249 136.954051 
" style="fill:none;stroke:#008000;stroke-linecap:square;stroke-width:1.5;"/>
    <g clip-path="url(#p454962a057)">
     <use style="fill:#008000;stroke:#008000;" x="779.880249" xlink:href="#m5f16f80168" y="136.954051"/>
    </g>
   </g>
  </g>
 </g>
 <defs>
  <clipPath id="p454962a057">
   <rect height="277.2" width="906.75" x="7.2" y="7.2"/>
  </clipPath>
 </defs>
</svg>
